<?xml version="1.0" encoding="utf-8"?>
<!-- Generator: Adobe Illustrator 19.0.1, SVG Export Plug-In . SVG Version: 6.00 Build 0)  -->
<svg version="1.1" id="Слой_1" xmlns="http://www.w3.org/2000/svg" xmlns:xlink="http://www.w3.org/1999/xlink" x="0px" y="0px"
	 viewBox="0 0 1029.8 770.5" style="enable-background:new 0 0 1029.8 770.5;" xml:space="preserve">
<style type="text/css">
	.st0{clip-path:url(#SVGID_2_);fill:#62BD69;stroke:#62BD69;stroke-miterlimit:10;}
</style>
<g>
	<defs>
		<rect id="SVGID_1_" width="1029.8" height="770.5"/>
	</defs>
	<clipPath id="SVGID_2_">
		<use xlink:href="#SVGID_1_"  style="overflow:visible;"/>
	</clipPath>
	<path class="st0" d="M1029.8,153.7c-18,15.6-36,31.2-53.9,47C761.1,389.4,546.2,578.1,331.4,766.9c-1.2,1.1-2.5,2.2-4.3,3.7
		C218.2,646.6,109.3,522.8,0,398.4c50.5-44.3,100.7-88.5,151.2-132.8c64.2,73,128.1,145.7,192.3,218.8
		C527.4,322.9,711,161.6,894.9,0c7,8,13.7,15.5,20.4,23.2c37.1,42.2,74.2,84.4,111.2,126.5c1,1.1,2.1,2,3.2,3V153.7z"/>
</g>
</svg>
