<?xml version="1.0" encoding="utf-8"?>
<!-- Generator: Adobe Illustrator 21.0.0, SVG Export Plug-In . SVG Version: 6.00 Build 0)  -->
<svg version="1.1" id="BACKGROUND_1" xmlns="http://www.w3.org/2000/svg" xmlns:xlink="http://www.w3.org/1999/xlink" x="0px"
	 y="0px" viewBox="0 0 663.4 663.4" style="enable-background:new 0 0 663.4 663.4;" xml:space="preserve">
<style type="text/css">
	.st0{opacity:2.000000e-02;fill:#FFFFFF;stroke:#000000;stroke-miterlimit:10;enable-background:new    ;}
	.st1{opacity:0.1;fill:none;stroke:#FFFFFF;stroke-width:16;stroke-linecap:round;stroke-miterlimit:10;enable-background:new    ;}
	.st2{fill:none;stroke:#36BC22;stroke-width:16;stroke-linecap:round;stroke-miterlimit:10;}
	.st3{fill:none;stroke:#0CA0E2;stroke-width:16;stroke-linecap:round;stroke-miterlimit:10;}
	.st4{fill:none;stroke:#C225D8;stroke-width:16;stroke-linecap:round;stroke-miterlimit:10;}
	.st5{fill:none;stroke:#E4484F;stroke-width:16;stroke-linecap:round;stroke-miterlimit:10;}
	.st6{fill:#1D2D44;stroke:#C225D8;stroke-width:8;stroke-miterlimit:10;}
	.st7{fill:#1D2D44;stroke:#E4484F;stroke-width:8;stroke-miterlimit:10;}
	.st8{fill:#1D2D44;stroke:#0CA0E2;stroke-width:8;stroke-miterlimit:10;}
	.st9{fill:#1D2D44;stroke:#36BC22;stroke-width:8;stroke-miterlimit:10;}
</style>
<circle class="st0" cx="331.7" cy="331.7" r="150.7"/>
<circle class="st0" cx="331.7" cy="331.7" r="236.1"/>
<circle class="st0" cx="331.7" cy="331.7" r="331.2"/>
<circle class="st1" cx="331.7" cy="331.7" r="283"/>
<path class="st2" d="M331.7,48.7c156.3,0,283,126.7,283,283c0,76.9-30.6,146.6-80.4,197.6"/>
<circle class="st1" cx="331.7" cy="331.7" r="197.5"/>
<path class="st3" d="M331.7,134.2c109.1,0,197.5,88.4,197.5,197.5c0,34.1-8.6,66.2-23.8,94.1"/>
<circle class="st1" cx="331.7" cy="331.7" r="112.7"/>
<path class="st4" d="M331.7,219c41.9,0,78.4,22.8,97.9,56.8"/>
<circle class="st1" cx="331.7" cy="331.7" r="41"/>
<path class="st5" d="M331.7,290.7c3.8,0,7.4,0.5,10.8,1.4"/>
<circle class="st6" cx="430.5" cy="275.8" r="29.4"/>
<circle class="st7" cx="366.5" cy="308.5" r="29.4"/>
<circle class="st8" cx="503.6" cy="426.5" r="29.4"/>
<circle class="st9" cx="534.3" cy="529.2" r="29.4"/>
</svg>
