<?xml version="1.0" encoding="utf-8"?>
<!-- Generator: Adobe Illustrator 19.0.1, SVG Export Plug-In . SVG Version: 6.00 Build 0)  -->
<svg version="1.1" id="Слой_1" xmlns="http://www.w3.org/2000/svg" xmlns:xlink="http://www.w3.org/1999/xlink" x="0px" y="0px"
	 viewBox="0 0 181.4 80" style="enable-background:new 0 0 181.4 80;" xml:space="preserve">
<style type="text/css">
	.st0{clip-path:url(#SVGID_2_);fill:#999999;}
</style>
<g>
	<defs>
		<rect id="SVGID_1_" y="0" width="181.4" height="80"/>
	</defs>
	<clipPath id="SVGID_2_">
		<use xlink:href="#SVGID_1_"  style="overflow:visible;"/>
	</clipPath>
	<path class="st0" d="M3.1,72.3c-1.5,0-3.1,0.6-3.1,2.3c0,1.4,1.2,2.1,2.5,2.1c1.2,0,2.2-0.4,2.9-1.2c0.1,0.8,0.6,1.1,1.2,1.1
		c0.3,0,0.5-0.1,0.8-0.1v-0.7c-0.2,0.1-0.4,0.1-0.5,0.1c-0.3,0-0.6-0.1-0.6-0.6v-3c0-1.9-1.1-2.9-3-2.9c-1.2,0-2.1,0.2-2.6,0.4
		l0,0.8c0.6-0.3,1.5-0.5,2.5-0.5c1.5,0,2.3,0.8,2.3,2.1v0.5C4.7,72.5,3.9,72.3,3.1,72.3 M5.4,74.6C4.7,75.5,3.7,76,2.6,76
		c-0.9,0-1.8-0.4-1.8-1.4c0-1.2,1.2-1.6,2.4-1.6c0.7,0,1.5,0.1,2.1,0.3V74.6z"/>
	<path class="st0" d="M38.2,79.2c-1,0-1.9-0.3-2.7-0.7v0.8c0.8,0.4,1.8,0.7,2.8,0.7c1.9,0,3.8-1,3.8-3.4l0-7.1h-0.8V71
		c-0.6-0.9-1.6-1.6-3-1.6c-2,0-3.5,1.5-3.5,3.7c0,2.2,1.5,3.7,3.5,3.7c1.4,0,2.4-0.7,3-1.6v1.4C41.2,78.5,39.8,79.2,38.2,79.2
		 M38.4,76c-1.6,0-2.8-1.1-2.8-2.9c0-1.8,1.2-2.9,2.8-2.9c1.4,0,2.4,0.9,2.9,2v2C40.8,75.1,39.7,76,38.4,76"/>
	<path class="st0" d="M74,69.3c-1.7,0-3.5,1.3-3.5,3.7c0,2.6,1.8,3.7,3.9,3.7c0.9,0,1.8-0.2,2.4-0.5v-0.8c-0.6,0.4-1.5,0.6-2.3,0.6
		c-1.6,0-3.1-0.8-3.2-2.6h5.9C77.6,71.6,76.7,69.3,74,69.3 M76.5,72.7h-5.2c0.1-1.7,1.3-2.6,2.7-2.6C76,70.1,76.6,71.7,76.5,72.7"/>
	<path class="st0" d="M105.6,69.5l0,7.1h0.8v-4.9c0.5-0.8,1.3-1.6,2.6-1.6c1.2,0,2.1,0.8,2.1,2.2v4.3h0.8v-4.4
		c0-1.8-1.2-2.9-2.9-2.9c-1.3,0-2.3,0.8-2.7,1.4v-1.3H105.6z"/>
	<path class="st0" d="M144.1,76.8c0.9,0,1.6-0.2,2.3-0.5v-0.8c-0.6,0.4-1.4,0.6-2.2,0.6c-1.5,0-3-0.9-3-2.9c0-2.1,1.6-3,3.1-3
		c0.7,0,1.5,0.2,2,0.6v-0.8c-0.6-0.4-1.4-0.6-2.1-0.6c-1.8,0-3.8,1.1-3.8,3.8C140.4,75.6,142.2,76.8,144.1,76.8"/>
	<path class="st0" d="M175,79.3c-0.2,0-0.4,0-0.7-0.1v0.7c0.3,0.1,0.5,0.1,0.8,0.1c1,0,1.8-0.6,2.5-2.2l3.6-8.3h-0.9l-2.6,6.2
		l-3-6.2h-0.9l3.5,7.1l-0.4,0.8C176.4,78.7,175.8,79.3,175,79.3"/>
	<polygon class="st0" points="24.2,46.7 8.5,46.7 8.5,32.5 20,32.5 20,23.9 8.5,23.9 8.5,9.7 24.2,9.7 24.2,0 0,0 0,56.4 24.2,56.4 
			"/>
	<polygon class="st0" points="100.7,42.5 93.6,0 84.7,0 94.8,56.4 106.5,56.4 116.7,0 107.8,0 	"/>
	<polygon class="st0" points="122.3,0 122.3,56.4 146.5,56.4 146.5,46.7 130.8,46.7 130.8,32.5 142.3,32.5 142.3,24 130.8,24 
		130.8,9.8 146.5,9.8 146.5,0 	"/>
	<polygon class="st0" points="54.9,0.1 54.9,56.4 79.1,56.4 79.1,46.7 63.4,46.7 63.4,32.5 74.9,32.5 74.9,23.9 63.4,23.9 63.4,9.8 
		79.1,9.8 79.1,0 54.9,0 	"/>
	<polygon class="st0" points="160.6,24 172.9,56.4 181.4,56.4 181.4,0 172.9,0 172.9,32.4 160.6,0 152.1,0 152,56.4 160.5,56.4 	"/>
	<polygon class="st0" points="35.6,56.4 45.2,56.4 45.2,9.8 39.3,9.8 39.3,0.1 35.6,0.1 29.8,0.1 29.8,9.8 35.7,9.8 	"/>
</g>
</svg>
