<?xml version="1.0" encoding="utf-8"?>
<!-- Generator: Adobe Illustrator 19.0.1, SVG Export Plug-In . SVG Version: 6.00 Build 0)  -->
<svg version="1.1" id="Layer_1" xmlns="http://www.w3.org/2000/svg" xmlns:xlink="http://www.w3.org/1999/xlink" x="0px" y="0px"
	 viewBox="-251 386.1 93 70.8" style="enable-background:new -251 386.1 93 70.8;" xml:space="preserve">
<path d="M-251,389.7L-251,389.7c0-2,1.6-3.6,3.6-3.6h85.8c2,0,3.6,1.6,3.6,3.6l0,0c0,2-1.6,3.6-3.6,3.6h-85.8
	C-249.4,393.3-251,391.7-251,389.7z"/>
<path d="M-216.7,421.5L-216.7,421.5c0-2,1.6-3.6,3.6-3.6h51.5c2,0,3.6,1.6,3.6,3.6l0,0c0,2-1.6,3.6-3.6,3.6h-51.5
	C-215.1,425.1-216.7,423.5-216.7,421.5z"/>
<path d="M-234.5,453.3L-234.5,453.3c0-2,1.6-3.6,3.6-3.6h69.3c2,0,3.6,1.6,3.6,3.6l0,0c0,2-1.6,3.6-3.6,3.6h-69.3
	C-232.9,456.9-234.5,455.3-234.5,453.3z"/>
</svg>
