<?xml version="1.0" encoding="utf-8"?>
<!-- Generator: Adobe Illustrator 19.0.1, SVG Export Plug-In . SVG Version: 6.00 Build 0)  -->
<svg version="1.1" id="Layer_1" xmlns="http://www.w3.org/2000/svg" xmlns:xlink="http://www.w3.org/1999/xlink" x="0px" y="0px"
	 viewBox="-251 386.1 93 70.8" style="enable-background:new -251 386.1 93 70.8;" xml:space="preserve">
<g>
	<path d="M-198,421.6c-10.4-10.3-20.5-20.5-30.7-30.6c1.7-1.6,3.2-3.1,4.8-4.6c10,10,20.2,20.2,30.5,30.5
		c10.3-10.4,20.5-20.6,30.7-30.8c1.6,1.6,3,3.1,4.5,4.6c-10.2,10.1-20.4,20.3-30.6,30.5c10.4,10.4,20.6,20.6,30.8,30.8
		c-1.7,1.6-3.2,3.1-4.7,4.6c-10.1-10.1-20.3-20.3-30.4-30.5c-10.4,10.4-20.5,20.6-30.7,30.8c-1.7-1.7-3.2-3.3-4.8-4.8
		C-218.5,442-208.3,431.8-198,421.6z"/>
</g>
</svg>
