<?xml version="1.0" encoding="utf-8"?>
<!-- Generator: Adobe Illustrator 19.0.1, SVG Export Plug-In . SVG Version: 6.00 Build 0)  -->
<svg version="1.1" id="Слой_1" xmlns="http://www.w3.org/2000/svg" xmlns:xlink="http://www.w3.org/1999/xlink" x="0px" y="0px"
	 viewBox="0 0 184 55.1" style="enable-background:new 0 0 184 55.1;" xml:space="preserve">
<style type="text/css">
	.st0{clip-path:url(#SVGID_2_);}
	.st1{clip-path:url(#SVGID_4_);}
	.st2{clip-path:url(#SVGID_6_);}
</style>
<rect x="29" y="13.9" width="6" height="28"/>
<g>
	<defs>
		<rect id="SVGID_1_" width="184" height="55.1"/>
	</defs>
	<clipPath id="SVGID_2_">
		<use xlink:href="#SVGID_1_"  style="overflow:visible;"/>
	</clipPath>
	<path class="st0" d="M35.5,7c0,1.9-1.5,3.5-3.5,3.5c-1.9,0-3.5-1.5-3.5-3.5c0-1.9,1.5-3.5,3.5-3.5C33.9,3.5,35.5,5.1,35.5,7"/>
	<path class="st0" d="M59.5,32.9c-1.4,1.8-3.7,2.9-6.1,2.9c-4.3,0-7.9-3.5-7.9-7.9c0-4.3,3.5-7.9,7.9-7.9c2.4,0,4.5,1.1,5.9,2.7
		l5.1-3.4c-2.6-3.3-6.5-5.4-11-5.4c-7.7,0-13.9,6.2-13.9,13.9s6.2,13.9,13.9,13.9c4.6,0,8.7-2.2,11.2-5.7L59.5,32.9z"/>
	<rect x="125.2" y="14.1" class="st0" width="6" height="28"/>
	<path class="st0" d="M131.7,7.1c0,1.9-1.5,3.5-3.5,3.5c-1.9,0-3.5-1.5-3.5-3.5c0-1.9,1.5-3.5,3.5-3.5
		C130.1,3.7,131.7,5.2,131.7,7.1"/>
	<path class="st0" d="M116.1,32.9c-1.4,1.8-3.7,2.9-6.1,2.9c-4.3,0-7.9-3.5-7.9-7.9c0-4.3,3.5-7.9,7.9-7.9c2.4,0,4.5,1.1,5.9,2.7
		l5.1-3.4c-2.6-3.3-6.5-5.4-11-5.4C102.3,14,96,20.3,96,28s6.2,13.9,13.9,13.9c4.6,0,8.7-2.2,11.2-5.7L116.1,32.9z"/>
	<rect y="0" class="st0" width="6" height="42.1"/>
	<rect x="69.2" y="0" class="st0" width="6" height="42.1"/>
</g>
<g>
	<defs>
		<rect id="SVGID_3_" width="184" height="55.1"/>
	</defs>
	<clipPath id="SVGID_4_">
		<use xlink:href="#SVGID_3_"  style="overflow:visible;"/>
	</clipPath>
	<path class="st1" d="M149,36c-3.7,0-5.4-1.4-5.4-4.6V20.1h9.5v-6h-9.5V0h-6.1v31.4c0,5.2,3,10.7,11.4,10.7c2,0,4.1-0.4,5.7-0.9
		v-6.4C153.6,35.1,151.1,36,149,36"/>
	<path class="st1" d="M170.4,32.2l-7.1-18.1h-6.5l10.3,26.4c-1.9,4.5-5.9,7.7-10.8,8.6l1.1,6c7.1-1.3,12.9-6.1,15.5-12.8l11-28.2
		h-6.5L170.4,32.2z"/>
</g>
<g>
	<defs>
		<rect id="SVGID_5_" width="184" height="55.1"/>
	</defs>
	<clipPath id="SVGID_6_">
		<use xlink:href="#SVGID_5_"  style="overflow:visible;"/>
	</clipPath>
	<polygon class="st2" points="14.9,27.9 24.7,14.1 17.3,14.1 7.5,27.9 17.5,42.1 25,42.1 	"/>
	<polygon class="st2" points="84.1,27.9 93.9,14.1 86.5,14.1 76.7,27.9 86.7,42.1 94.1,42.1 	"/>
</g>
</svg>
