<?xml version="1.0" encoding="utf-8"?>
<!-- Generator: Adobe Illustrator 19.0.1, SVG Export Plug-In . SVG Version: 6.00 Build 0)  -->
<svg version="1.1" id="Слой_1" xmlns="http://www.w3.org/2000/svg" xmlns:xlink="http://www.w3.org/1999/xlink" x="0px" y="0px"
	 viewBox="0 0 507.5 363.5" style="enable-background:new 0 0 507.5 363.5;" xml:space="preserve">
<style type="text/css">
	.st0{clip-path:url(#SVGID_2_);fill:#FFFFFF;stroke:#FFFFFF;stroke-miterlimit:10;}
</style>
<g>
	<defs>
		<rect id="SVGID_1_" width="507.5" height="363.5"/>
	</defs>
	<clipPath id="SVGID_2_">
		<use xlink:href="#SVGID_1_"  style="overflow:visible;"/>
	</clipPath>
	<path class="st0" d="M507.5,363.5H0V0h507.5V363.5z M467.7,54.5c-0.8,0.5-1.3,0.7-1.7,0.9c-7.8,5.4-15.6,10.7-23.4,16.1
		c-18.8,13-37.7,26-56.5,39c-23.1,15.9-46.3,31.9-69.4,47.8c-20.4,14.1-40.8,28.2-61.2,42.3c-1.2,0.8-2,0.9-3.2,0.1
		c-17.1-11.5-34.3-22.9-51.4-34.3c-27.6-18.4-55.1-36.9-82.7-55.4C96.4,96.4,74.5,81.8,52.7,67.3c-4.2-2.8-8.3-5.5-12.8-8.5v264.9
		h427.8V54.5z M417.7,40.4c-0.1-0.2-0.1-0.3-0.2-0.5H84c4.1,3.3,8.4,6.1,12.6,8.9c30.6,20.4,61.2,40.8,91.8,61.3
		c20.9,14,41.9,28,62.8,42c1.8,1.2,2.9,1.2,4.7,0c16.5-11.5,33-22.9,49.6-34.3c19.1-13.1,38.1-26.2,57.2-39.4
		c13.5-9.3,27-18.6,40.5-27.9C408,47.2,412.8,43.8,417.7,40.4"/>
</g>
</svg>
