<?xml version="1.0" encoding="utf-8"?>
<!-- Generator: Adobe Illustrator 19.0.1, SVG Export Plug-In . SVG Version: 6.00 Build 0)  -->
<svg version="1.1" id="Слой_1" xmlns="http://www.w3.org/2000/svg" xmlns:xlink="http://www.w3.org/1999/xlink" x="0px" y="0px"
	 viewBox="0 0 90 90" style="enable-background:new 0 0 90 90;" xml:space="preserve">
<style type="text/css">
	.st0{clip-path:url(#SVGID_2_);fill:#00A9FF;}
	.st1{clip-path:url(#SVGID_2_);fill:#FEFEFE;}
</style>
<g>
	<defs>
		<rect id="SVGID_1_" width="90" height="90"/>
	</defs>
	<clipPath id="SVGID_2_">
		<use xlink:href="#SVGID_1_"  style="overflow:visible;"/>
	</clipPath>
	<path class="st0" d="M90,45c0,24.9-20.1,45-45,45C20.1,90,0,69.9,0,45S20.1,0,45,0C69.9,0,90,20.1,90,45"/>
	<path class="st1" d="M44.9,67.6c-2,0-4-0.1-6.1-0.3c-2.3-0.3-4.7-0.7-6.9-1.3c-1.7-0.5-3.3-1.1-4.7-2c-0.9-0.5-1.7-1.2-2.2-2.1
		c-0.3-0.5-0.4-1-0.4-1.5c0-2.3,0.5-4.4,1.5-6.5c1-2,2.4-3.7,4.1-5c1.9-1.5,4-2.4,6.3-2.9c0.2,0,0.4,0,0.6,0.1
		c0.8,0.6,3.8,3.2,8,3.2c4,0,7.8-3,8-3.2c0.1-0.1,0.3-0.2,0.7-0.1c1.4,0.2,2.5,0.6,3.8,1.3c1.3,0.7,2.5,1.5,3.6,2.5
		c1.1,1,2,2.2,2.7,3.6c0.8,1.4,1.3,3,1.6,4.6c0.1,0.8,0.2,1.7,0.2,2.6c0,0.7-0.3,1.3-0.8,1.8c-0.6,0.8-1.4,1.3-2.3,1.8
		c-2,1.1-4.1,1.8-6.3,2.3c-1.5,0.3-3,0.6-4.6,0.8C49.4,67.5,47.2,67.6,44.9,67.6"/>
	<path class="st1" d="M44.6,22.4c2.4,0,4.3,0.5,6,1.5c1.9,1.1,3.3,2.6,4.3,4.6c1,1.9,1.3,4,1.1,6.1c-0.2,2.2-1,4.1-2.2,6
		c-0.8,1.2-1.7,2.3-2.9,3.1c-1.4,1.1-3,1.8-4.7,2.1c-1.8,0.2-3.5-0.1-5.1-0.9c-2-1-3.5-2.5-4.7-4.3c-0.9-1.4-1.6-2.9-1.9-4.5
		c-0.6-2.4-0.4-4.7,0.5-7c0.8-1.9,2.1-3.5,3.8-4.7C40.6,23.1,42.7,22.4,44.6,22.4"/>
</g>
</svg>
