<?xml version="1.0" encoding="utf-8"?>
<!-- Generator: Adobe Illustrator 21.0.0, SVG Export Plug-In . SVG Version: 6.00 Build 0)  -->
<svg version="1.1" id="Layer_1" xmlns="http://www.w3.org/2000/svg" xmlns:xlink="http://www.w3.org/1999/xlink" x="0px" y="0px"
	 viewBox="0 0 578.8 307" style="enable-background:new 0 0 578.8 307;" xml:space="preserve">
<style type="text/css">
	.st0{opacity:0.4;fill:#FEFEFE;}
	.st1{fill:#00A9FF;}
	.st2{fill:#FEFEFE;}
</style>
<rect x="85.5" y="38.9" transform="matrix(0.7917 0.6109 -0.6109 0.7917 77.9173 -32.3052)" class="st0" width="1.8" height="118.5"/>
<rect x="244.3" y="38.9" transform="matrix(0.7917 0.6109 -0.6109 0.7917 110.9992 -129.3392)" class="st0" width="1.8" height="118.5"/>
<rect x="411.1" y="38.9" transform="matrix(0.7917 0.6109 -0.6109 0.7917 145.7404 -231.2407)" class="st0" width="1.8" height="118.5"/>
<rect x="154.7" y="155.3" transform="matrix(0.7917 0.6109 -0.6109 0.7917 163.4417 -50.3681)" class="st0" width="1.8" height="118.5"/>
<rect x="321.5" y="155.3" transform="matrix(0.7917 0.6109 -0.6109 0.7917 198.1829 -152.2695)" class="st0" width="1.8" height="118.5"/>
<rect x="481.8" y="155.3" transform="matrix(0.7917 0.6109 -0.6109 0.7917 231.5594 -250.1678)" class="st0" width="1.8" height="118.5"/>
<rect x="492.6" y="38.9" transform="matrix(-0.7917 0.6109 -0.6109 -0.7917 944.1931 -125.6658)" class="st0" width="1.8" height="118.5"/>
<rect x="333.8" y="38.9" transform="matrix(-0.7917 0.6109 -0.6109 -0.7917 659.5775 -28.6317)" class="st0" width="1.8" height="118.5"/>
<rect x="167" y="38.9" transform="matrix(-0.7917 0.6109 -0.6109 -0.7917 360.6852 73.2697)" class="st0" width="1.8" height="118.5"/>
<rect x="423.4" y="155.3" transform="matrix(-0.7917 0.6109 -0.6109 -0.7917 891.2119 125.1901)" class="st0" width="1.8" height="118.5"/>
<rect x="256.6" y="155.3" transform="matrix(-0.7917 0.6109 -0.6109 -0.7917 592.3195 227.0915)" class="st0" width="1.8" height="118.5"/>
<rect x="93.1" y="154.5" transform="matrix(-0.7917 0.6109 -0.6109 -0.7917 298.9665 325.5469)" class="st0" width="1.8" height="118.5"/>
<g>
	<circle class="st1" cx="371.3" cy="153.5" r="45"/>
	<g id="_x30_I8tK5_1_">
		<g>
			<path class="st2" d="M371.2,176.1c-2,0-4-0.1-6.1-0.3c-2.3-0.3-4.7-0.7-6.9-1.3c-1.7-0.5-3.3-1.1-4.7-2c-0.9-0.5-1.7-1.2-2.2-2.1
				c-0.3-0.5-0.4-1-0.4-1.5c0-2.3,0.5-4.4,1.5-6.5c1-2,2.4-3.7,4.1-5c1.9-1.5,4-2.4,6.3-2.9c0.2,0,0.4,0,0.6,0.1
				c0.8,0.6,3.8,3.2,8,3.2c4,0,7.8-3,8-3.2c0.1-0.1,0.3-0.2,0.7-0.1c1.4,0.2,2.5,0.6,3.8,1.3c1.3,0.7,2.5,1.5,3.6,2.5
				c1.1,1,2,2.2,2.7,3.6c0.8,1.4,1.3,3,1.6,4.6c0.1,0.8,0.2,1.7,0.2,2.6c0,0.7-0.3,1.3-0.8,1.8c-0.6,0.8-1.4,1.3-2.3,1.8
				c-2,1.1-4.1,1.8-6.3,2.3c-1.5,0.3-3,0.6-4.6,0.8C375.7,176,373.5,176.1,371.2,176.1z"/>
			<path class="st2" d="M370.9,130.9c2.4,0,4.3,0.5,6,1.5c1.9,1.1,3.3,2.6,4.3,4.6c1,1.9,1.3,4,1.1,6.1c-0.2,2.2-1,4.1-2.2,6
				c-0.8,1.2-1.7,2.3-2.9,3.1c-1.4,1.1-3,1.8-4.7,2.1c-1.8,0.2-3.5-0.1-5.1-0.9c-2-1-3.5-2.5-4.7-4.3c-0.9-1.4-1.6-2.9-1.9-4.5
				c-0.6-2.4-0.4-4.7,0.5-7c0.8-1.9,2.1-3.5,3.8-4.7C366.9,131.5,369,130.9,370.9,130.9z"/>
		</g>
	</g>
</g>
<g>
	<circle class="st1" cx="290.2" cy="45" r="45"/>
	<g id="_x30_I8tK5_3_">
		<g>
			<path class="st2" d="M290.1,67.6c-2,0-4-0.1-6.1-0.3c-2.3-0.3-4.7-0.7-6.9-1.3c-1.7-0.5-3.3-1.1-4.7-2c-0.9-0.5-1.7-1.2-2.2-2.1
				c-0.3-0.5-0.4-1-0.4-1.5c0-2.3,0.5-4.4,1.5-6.5c1-2,2.4-3.7,4.1-5c1.9-1.5,4-2.4,6.3-2.9c0.2,0,0.4,0,0.6,0.1
				c0.8,0.6,3.8,3.2,8,3.2c4,0,7.8-3,8-3.2c0.1-0.1,0.3-0.2,0.7-0.1c1.4,0.2,2.5,0.6,3.8,1.3c1.3,0.7,2.5,1.5,3.6,2.5
				c1.1,1,2,2.2,2.7,3.6c0.8,1.4,1.3,3,1.6,4.6c0.1,0.8,0.2,1.7,0.2,2.6c0,0.7-0.3,1.3-0.8,1.8c-0.6,0.8-1.4,1.3-2.3,1.8
				c-2,1.1-4.1,1.8-6.3,2.3c-1.5,0.3-3,0.6-4.6,0.8C294.6,67.5,292.4,67.6,290.1,67.6z"/>
			<path class="st2" d="M289.7,22.4c2.4,0,4.3,0.5,6,1.5c1.9,1.1,3.3,2.6,4.3,4.6c1,1.9,1.3,4,1.1,6.1c-0.2,2.2-1,4.1-2.2,6
				c-0.8,1.2-1.7,2.3-2.9,3.1c-1.4,1.1-3,1.8-4.7,2.1c-1.8,0.2-3.5-0.1-5.1-0.9c-2-1-3.5-2.5-4.7-4.3c-0.9-1.4-1.6-2.9-1.9-4.5
				c-0.6-2.4-0.4-4.7,0.5-7c0.8-1.9,2.1-3.5,3.8-4.7C285.8,23.1,287.9,22.4,289.7,22.4z"/>
		</g>
	</g>
</g>
<g>
	<circle class="st1" cx="290.2" cy="262" r="45"/>
	<g id="_x30_I8tK5_4_">
		<g>
			<path class="st2" d="M290.1,284.6c-2,0-4-0.1-6.1-0.3c-2.3-0.3-4.7-0.7-6.9-1.3c-1.7-0.5-3.3-1.1-4.7-2c-0.9-0.5-1.7-1.2-2.2-2.1
				c-0.3-0.5-0.4-1-0.4-1.5c0-2.3,0.5-4.4,1.5-6.5c1-2,2.4-3.7,4.1-5c1.9-1.5,4-2.4,6.3-2.9c0.2,0,0.4,0,0.6,0.1
				c0.8,0.6,3.8,3.2,8,3.2c4,0,7.8-3,8-3.2c0.1-0.1,0.3-0.2,0.7-0.1c1.4,0.2,2.5,0.6,3.8,1.3c1.3,0.7,2.5,1.5,3.6,2.5
				c1.1,1,2,2.2,2.7,3.6c0.8,1.4,1.3,3,1.6,4.6c0.1,0.8,0.2,1.7,0.2,2.6c0,0.7-0.3,1.3-0.8,1.8c-0.6,0.8-1.4,1.3-2.3,1.8
				c-2,1.1-4.1,1.8-6.3,2.3c-1.5,0.3-3,0.6-4.6,0.8C294.6,284.5,292.4,284.6,290.1,284.6z"/>
			<path class="st2" d="M289.7,239.3c2.4,0,4.3,0.5,6,1.5c1.9,1.1,3.3,2.6,4.3,4.6c1,1.9,1.3,4,1.1,6.1c-0.2,2.2-1,4.1-2.2,6
				c-0.8,1.2-1.7,2.3-2.9,3.1c-1.4,1.1-3,1.8-4.7,2.1c-1.8,0.2-3.5-0.1-5.1-0.9c-2-1-3.5-2.5-4.7-4.3c-0.9-1.4-1.6-2.9-1.9-4.5
				c-0.6-2.4-0.4-4.7,0.5-7c0.8-1.9,2.1-3.5,3.8-4.7C285.8,240,287.9,239.4,289.7,239.3z"/>
		</g>
	</g>
</g>
<g>
	<circle class="st1" cx="533.8" cy="153.5" r="45"/>
	<g id="_x30_I8tK5_7_">
		<g>
			<path class="st2" d="M533.7,176.1c-2,0-4-0.1-6.1-0.3c-2.3-0.3-4.7-0.7-6.9-1.3c-1.7-0.5-3.3-1.1-4.7-2c-0.9-0.5-1.7-1.2-2.2-2.1
				c-0.3-0.5-0.4-1-0.4-1.5c0-2.3,0.5-4.4,1.5-6.5c1-2,2.4-3.7,4.1-5c1.9-1.5,4-2.4,6.3-2.9c0.2,0,0.4,0,0.6,0.1
				c0.8,0.6,3.8,3.2,8,3.2c4,0,7.8-3,8-3.2c0.1-0.1,0.3-0.2,0.7-0.1c1.4,0.2,2.5,0.6,3.8,1.3c1.3,0.7,2.5,1.5,3.6,2.5
				c1.1,1,2,2.2,2.7,3.6c0.8,1.4,1.3,3,1.6,4.6c0.1,0.8,0.2,1.7,0.2,2.6c0,0.7-0.3,1.3-0.8,1.8c-0.6,0.8-1.4,1.3-2.3,1.8
				c-2,1.1-4.1,1.8-6.3,2.3c-1.5,0.3-3,0.6-4.6,0.8C538.2,176,536,176.1,533.7,176.1z"/>
			<path class="st2" d="M533.4,130.9c2.4,0,4.3,0.5,6,1.5c1.9,1.1,3.3,2.6,4.3,4.6c1,1.9,1.3,4,1.1,6.1c-0.2,2.2-1,4.1-2.2,6
				c-0.8,1.2-1.7,2.3-2.9,3.1c-1.4,1.1-3,1.8-4.7,2.1c-1.8,0.2-3.5-0.1-5.1-0.9c-2-1-3.5-2.5-4.7-4.3c-0.9-1.4-1.6-2.9-1.9-4.5
				c-0.6-2.4-0.4-4.7,0.5-7c0.8-1.9,2.1-3.5,3.8-4.7C529.4,131.5,531.5,130.9,533.4,130.9z"/>
		</g>
	</g>
</g>
<g>
	<circle class="st1" cx="452.7" cy="45" r="45"/>
	<g id="_x30_I8tK5_6_">
		<g>
			<path class="st2" d="M452.6,67.6c-2,0-4-0.1-6.1-0.3c-2.3-0.3-4.7-0.7-6.9-1.3c-1.7-0.5-3.3-1.1-4.7-2c-0.9-0.5-1.7-1.2-2.2-2.1
				c-0.3-0.5-0.4-1-0.4-1.5c0-2.3,0.5-4.4,1.5-6.5c1-2,2.4-3.7,4.1-5c1.9-1.5,4-2.4,6.3-2.9c0.2,0,0.4,0,0.6,0.1
				c0.8,0.6,3.8,3.2,8,3.2c4,0,7.8-3,8-3.2c0.1-0.1,0.3-0.2,0.7-0.1c1.4,0.2,2.5,0.6,3.8,1.3c1.3,0.7,2.5,1.5,3.6,2.5
				c1.1,1,2,2.2,2.7,3.6c0.8,1.4,1.3,3,1.6,4.6c0.1,0.8,0.2,1.7,0.2,2.6c0,0.7-0.3,1.3-0.8,1.8c-0.6,0.8-1.4,1.3-2.3,1.8
				c-2,1.1-4.1,1.8-6.3,2.3c-1.5,0.3-3,0.6-4.6,0.8C457.1,67.5,454.9,67.6,452.6,67.6z"/>
			<path class="st2" d="M452.3,22.4c2.4,0,4.3,0.5,6,1.5c1.9,1.1,3.3,2.6,4.3,4.6c1,1.9,1.3,4,1.1,6.1c-0.2,2.2-1,4.1-2.2,6
				c-0.8,1.2-1.7,2.3-2.9,3.1c-1.4,1.1-3,1.8-4.7,2.1c-1.8,0.2-3.5-0.1-5.1-0.9c-2-1-3.5-2.5-4.7-4.3c-0.9-1.4-1.6-2.9-1.9-4.5
				c-0.6-2.4-0.4-4.7,0.5-7c0.8-1.9,2.1-3.5,3.8-4.7C448.3,23.1,450.4,22.4,452.3,22.4z"/>
		</g>
	</g>
</g>
<g>
	<circle class="st1" cx="452.7" cy="262" r="45"/>
	<g id="_x30_I8tK5_5_">
		<g>
			<path class="st2" d="M452.6,284.6c-2,0-4-0.1-6.1-0.3c-2.3-0.3-4.7-0.7-6.9-1.3c-1.7-0.5-3.3-1.1-4.7-2c-0.9-0.5-1.7-1.2-2.2-2.1
				c-0.3-0.5-0.4-1-0.4-1.5c0-2.3,0.5-4.4,1.5-6.5c1-2,2.4-3.7,4.1-5c1.9-1.5,4-2.4,6.3-2.9c0.2,0,0.4,0,0.6,0.1
				c0.8,0.6,3.8,3.2,8,3.2c4,0,7.8-3,8-3.2c0.1-0.1,0.3-0.2,0.7-0.1c1.4,0.2,2.5,0.6,3.8,1.3c1.3,0.7,2.5,1.5,3.6,2.5
				c1.1,1,2,2.2,2.7,3.6c0.8,1.4,1.3,3,1.6,4.6c0.1,0.8,0.2,1.7,0.2,2.6c0,0.7-0.3,1.3-0.8,1.8c-0.6,0.8-1.4,1.3-2.3,1.8
				c-2,1.1-4.1,1.8-6.3,2.3c-1.5,0.3-3,0.6-4.6,0.8C457.1,284.5,454.9,284.6,452.6,284.6z"/>
			<path class="st2" d="M452.3,239.3c2.4,0,4.3,0.5,6,1.5c1.9,1.1,3.3,2.6,4.3,4.6c1,1.9,1.3,4,1.1,6.1c-0.2,2.2-1,4.1-2.2,6
				c-0.8,1.2-1.7,2.3-2.9,3.1c-1.4,1.1-3,1.8-4.7,2.1c-1.8,0.2-3.5-0.1-5.1-0.9c-2-1-3.5-2.5-4.7-4.3c-0.9-1.4-1.6-2.9-1.9-4.5
				c-0.6-2.4-0.4-4.7,0.5-7c0.8-1.9,2.1-3.5,3.8-4.7C448.3,240,450.4,239.4,452.3,239.3z"/>
		</g>
	</g>
</g>
<g>
	<circle class="st1" cx="208.6" cy="153.5" r="45"/>
	<g id="_x30_I8tK5_2_">
		<g>
			<path class="st2" d="M208.5,176.1c-2,0-4-0.1-6.1-0.3c-2.3-0.3-4.7-0.7-6.9-1.3c-1.7-0.5-3.3-1.1-4.7-2c-0.9-0.5-1.7-1.2-2.2-2.1
				c-0.3-0.5-0.4-1-0.4-1.5c0-2.3,0.5-4.4,1.5-6.5c1-2,2.4-3.7,4.1-5c1.9-1.5,4-2.4,6.3-2.9c0.2,0,0.4,0,0.6,0.1
				c0.8,0.6,3.8,3.2,8,3.2c4,0,7.8-3,8-3.2c0.1-0.1,0.3-0.2,0.7-0.1c1.4,0.2,2.5,0.6,3.8,1.3c1.3,0.7,2.5,1.5,3.6,2.5
				c1.1,1,2,2.2,2.7,3.6c0.8,1.4,1.3,3,1.6,4.6c0.1,0.8,0.2,1.7,0.2,2.6c0,0.7-0.3,1.3-0.8,1.8c-0.6,0.8-1.4,1.3-2.3,1.8
				c-2,1.1-4.1,1.8-6.3,2.3c-1.5,0.3-3,0.6-4.6,0.8C212.9,176,210.7,176.1,208.5,176.1z"/>
			<path class="st2" d="M208.1,130.9c2.4,0,4.3,0.5,6,1.5c1.9,1.1,3.3,2.6,4.3,4.6c1,1.9,1.3,4,1.1,6.1c-0.2,2.2-1,4.1-2.2,6
				c-0.8,1.2-1.7,2.3-2.9,3.1c-1.4,1.1-3,1.8-4.7,2.1c-1.8,0.2-3.5-0.1-5.1-0.9c-2-1-3.5-2.5-4.7-4.3c-0.9-1.4-1.6-2.9-1.9-4.5
				c-0.6-2.4-0.4-4.7,0.5-7c0.8-1.9,2.1-3.5,3.8-4.7C204.2,131.5,206.3,130.9,208.1,130.9z"/>
		</g>
	</g>
</g>
<g>
	<circle class="st1" cx="126.6" cy="45" r="45"/>
	<g id="_x30_I8tK5_10_">
		<g>
			<path class="st2" d="M126.5,67.6c-2,0-4-0.1-6.1-0.3c-2.3-0.3-4.7-0.7-6.9-1.3c-1.7-0.5-3.3-1.1-4.7-2c-0.9-0.5-1.7-1.2-2.2-2.1
				c-0.3-0.5-0.4-1-0.4-1.5c0-2.3,0.5-4.4,1.5-6.5c1-2,2.4-3.7,4.1-5c1.9-1.5,4-2.4,6.3-2.9c0.2,0,0.4,0,0.6,0.1
				c0.8,0.6,3.8,3.2,8,3.2c4,0,7.8-3,8-3.2c0.1-0.1,0.3-0.2,0.7-0.1c1.4,0.2,2.5,0.6,3.8,1.3c1.3,0.7,2.5,1.5,3.6,2.5
				c1.1,1,2,2.2,2.7,3.6c0.8,1.4,1.3,3,1.6,4.6c0.1,0.8,0.2,1.7,0.2,2.6c0,0.7-0.3,1.3-0.8,1.8c-0.6,0.8-1.4,1.3-2.3,1.8
				c-2,1.1-4.1,1.8-6.3,2.3c-1.5,0.3-3,0.6-4.6,0.8C131,67.5,128.8,67.6,126.5,67.6z"/>
			<path class="st2" d="M126.2,22.4c2.4,0,4.3,0.5,6,1.5c1.9,1.1,3.3,2.6,4.3,4.6c1,1.9,1.3,4,1.1,6.1c-0.2,2.2-1,4.1-2.2,6
				c-0.8,1.2-1.7,2.3-2.9,3.1c-1.4,1.1-3,1.8-4.7,2.1c-1.8,0.2-3.5-0.1-5.1-0.9c-2-1-3.5-2.5-4.7-4.3c-0.9-1.4-1.6-2.9-1.9-4.5
				c-0.6-2.4-0.4-4.7,0.5-7c0.8-1.9,2.1-3.5,3.8-4.7C122.2,23.1,124.3,22.4,126.2,22.4z"/>
		</g>
	</g>
</g>
<g>
	<circle class="st1" cx="126.6" cy="262" r="45"/>
	<g id="_x30_I8tK5_9_">
		<g>
			<path class="st2" d="M126.5,284.6c-2,0-4-0.1-6.1-0.3c-2.3-0.3-4.7-0.7-6.9-1.3c-1.7-0.5-3.3-1.1-4.7-2c-0.9-0.5-1.7-1.2-2.2-2.1
				c-0.3-0.5-0.4-1-0.4-1.5c0-2.3,0.5-4.4,1.5-6.5c1-2,2.4-3.7,4.1-5c1.9-1.5,4-2.4,6.3-2.9c0.2,0,0.4,0,0.6,0.1
				c0.8,0.6,3.8,3.2,8,3.2c4,0,7.8-3,8-3.2c0.1-0.1,0.3-0.2,0.7-0.1c1.4,0.2,2.5,0.6,3.8,1.3c1.3,0.7,2.5,1.5,3.6,2.5
				c1.1,1,2,2.2,2.7,3.6c0.8,1.4,1.3,3,1.6,4.6c0.1,0.8,0.2,1.7,0.2,2.6c0,0.7-0.3,1.3-0.8,1.8c-0.6,0.8-1.4,1.3-2.3,1.8
				c-2,1.1-4.1,1.8-6.3,2.3c-1.5,0.3-3,0.6-4.6,0.8C131,284.5,128.8,284.6,126.5,284.6z"/>
			<path class="st2" d="M126.2,239.3c2.4,0,4.3,0.5,6,1.5c1.9,1.1,3.3,2.6,4.3,4.6c1,1.9,1.3,4,1.1,6.1c-0.2,2.2-1,4.1-2.2,6
				c-0.8,1.2-1.7,2.3-2.9,3.1c-1.4,1.1-3,1.8-4.7,2.1c-1.8,0.2-3.5-0.1-5.1-0.9c-2-1-3.5-2.5-4.7-4.3c-0.9-1.4-1.6-2.9-1.9-4.5
				c-0.6-2.4-0.4-4.7,0.5-7c0.8-1.9,2.1-3.5,3.8-4.7C122.2,240,124.3,239.4,126.2,239.3z"/>
		</g>
	</g>
</g>
<g>
	<circle class="st1" cx="45" cy="153.5" r="45"/>
	<g id="_x30_I8tK5_8_">
		<g>
			<path class="st2" d="M44.9,176.1c-2,0-4-0.1-6.1-0.3c-2.3-0.3-4.7-0.7-6.9-1.3c-1.7-0.5-3.3-1.1-4.7-2c-0.9-0.5-1.7-1.2-2.2-2.1
				c-0.3-0.5-0.4-1-0.4-1.5c0-2.3,0.5-4.4,1.5-6.5c1-2,2.4-3.7,4.1-5c1.9-1.5,4-2.4,6.3-2.9c0.2,0,0.4,0,0.6,0.1
				c0.8,0.6,3.8,3.2,8,3.2c4,0,7.8-3,8-3.2c0.1-0.1,0.3-0.2,0.7-0.1c1.4,0.2,2.5,0.6,3.8,1.3c1.3,0.7,2.5,1.5,3.6,2.5
				c1.1,1,2,2.2,2.7,3.6c0.8,1.4,1.3,3,1.6,4.6c0.1,0.8,0.2,1.7,0.2,2.6c0,0.7-0.3,1.3-0.8,1.8c-0.6,0.8-1.4,1.3-2.3,1.8
				c-2,1.1-4.1,1.8-6.3,2.3c-1.5,0.3-3,0.6-4.6,0.8C49.4,176,47.2,176.1,44.9,176.1z"/>
			<path class="st2" d="M44.6,130.9c2.4,0,4.3,0.5,6,1.5c1.9,1.1,3.3,2.6,4.3,4.6c1,1.9,1.3,4,1.1,6.1c-0.2,2.2-1,4.1-2.2,6
				c-0.8,1.2-1.7,2.3-2.9,3.1c-1.4,1.1-3,1.8-4.7,2.1c-1.8,0.2-3.5-0.1-5.1-0.9c-2-1-3.5-2.5-4.7-4.3c-0.9-1.4-1.6-2.9-1.9-4.5
				c-0.6-2.4-0.4-4.7,0.5-7c0.8-1.9,2.1-3.5,3.8-4.7C40.6,131.5,42.7,130.9,44.6,130.9z"/>
		</g>
	</g>
</g>
</svg>
