<?xml version="1.0" encoding="utf-8"?>
<!-- Generator: Adobe Illustrator 19.0.1, SVG Export Plug-In . SVG Version: 6.00 Build 0)  -->
<svg version="1.1" id="Слой_1" xmlns="http://www.w3.org/2000/svg" xmlns:xlink="http://www.w3.org/1999/xlink" x="0px" y="0px"
	 viewBox="-21 213.9 551.5 414" style="enable-background:new -21 213.9 551.5 414;" xml:space="preserve">
<style type="text/css">
	.st0{clip-path:url(#SVGID_2_);fill:#3294D1;}
	.st1{clip-path:url(#SVGID_4_);fill:#3294D1;}
	.st2{clip-path:url(#SVGID_6_);fill:#3294D1;}
	.st3{clip-path:url(#SVGID_8_);fill:#3294D1;}
	.st4{clip-path:url(#SVGID_10_);fill:#3294D1;}
	.st5{clip-path:url(#SVGID_12_);fill:#3294D1;}
</style>
<g>
	<g>
		<defs>
			<rect id="SVGID_1_" x="-21" y="213.9" width="551.5" height="414"/>
		</defs>
		<clipPath id="SVGID_2_">
			<use xlink:href="#SVGID_1_"  style="overflow:visible;"/>
		</clipPath>
		<path class="st0" d="M384.6,584.6c5.3-1.7,9.9-4.3,12.1-9.7c2.8-6.8,1.4-12.9-3.3-18.3c-12.7-14.7-25.3-29.3-37.9-44
			c-0.8-0.9-1.5-1.8-2.4-2.9c7.6-9.5,15-18.9,22.4-28.2c2.3-2.9,4.4-5.8,6.9-8.5c0.7-0.8,2.3-1.4,3.2-1.1c1.9,0.6,4.4-0.2,5.2,3
			c4.5,16.8,9.3,33.6,14.1,50.3c2.9,10.2,10,14.6,20.5,12.8c22.4-3.9,44.7-7.8,67-11.8c7.8-1.4,13.3-6.5,14.4-13.3
			c1.2-7.4-1.9-14.5-8.7-17.4c-3.2-1.4-7.2-2.1-10.5-1.6c-17.4,2.8-34.7,6-52.1,9.1c-0.8,0.1-1.6,0.2-2.8,0.3
			c-1.5-5.1-2.7-10.3-4.5-15.4c-1.6-4.7-1.4-9.1-0.2-13.9c6.6-25.9,12.8-51.9,19.3-77.8c0.5-2,1.7-4.1,3.1-5.6
			c24.9-25.5,49.8-50.9,74.8-76.2c3.7-3.8,5.9-8,4.8-13.4c-1.9-9.9-13.5-14.4-21.6-8.3c-1.3,1-2.4,2.2-3.6,3.3
			c-21.6,22-43.2,44-64.8,66c-1.5,1.5-2.8,2.1-5,1.5c-10.2-2.7-20.4-5.1-30.6-7.8c-1.7-0.4-3.5-1.7-4.5-3
			c-17.9-24.2-35.8-48.5-53.6-72.7c-5.2-7.1-12.7-8.8-19.3-4.6c-6.8,4.4-8.2,13.1-3.1,20.2c5.6,7.8,11.4,15.5,17.1,23.3
			c12.1,16.4,24.1,32.8,36.3,49.2c1.3,1.7,1.6,3.2,1.1,5.3c-6.2,24.7-12.2,49.3-18.3,74c-0.2,0.9-0.6,1.9-1.2,2.7
			c-13.2,16.5-26.4,32.9-39.6,49.4c-5.7,7.2-5.5,15.2,0.5,22.2c16.1,18.8,32.3,37.5,48.4,56.3c3,3.5,6.6,5.6,10.8,6.9h5.6V584.6z"/>
	</g>
	<g>
		<defs>
			<rect id="SVGID_3_" x="-21" y="213.9" width="551.5" height="414"/>
		</defs>
		<clipPath id="SVGID_4_">
			<use xlink:href="#SVGID_3_"  style="overflow:visible;"/>
		</clipPath>
		<path class="st1" d="M399.7,323.4c-0.1,15.5,12.5,28.2,28.1,28.3c15.5,0.1,28.2-12.5,28.3-28.1c0.1-15.4-12.6-28.2-28.2-28.3
			C412.5,295.1,399.8,307.8,399.7,323.4"/>
	</g>
	<g>
		<defs>
			<rect id="SVGID_5_" x="-21" y="213.9" width="551.5" height="414"/>
		</defs>
		<clipPath id="SVGID_6_">
			<use xlink:href="#SVGID_5_"  style="overflow:visible;"/>
		</clipPath>
		<path class="st2" d="M149.7,627.9c-0.2-0.2-0.3-0.5-0.5-0.6c-8.4-2.8-11.7-8.8-11.7-17.4c0.1-41.9,0-83.7,0-125.6
			c0-32.4-0.1-64.8,0.1-97.2c0-3.6-0.9-5.3-4.5-6.4c-13.2-4.1-26.3-8.6-39.5-12.8c-5.1-1.6-8.8-4.4-11.6-9.1
			c-7.2-12-14.7-23.8-22-35.7c-0.7-1.1-1.4-2.2-2.4-3.6c-0.9,0.7-1.5,1.3-2.2,1.8c-3.8,2.9-7.2,2.8-10.7-0.5
			c-3.6-3.4-7.1-6.8-11.4-11.1c-2.1,2.5-4.2,5.3-6.7,7.6c-4.2,4-8.6,4-12.7-0.1c-10.8-10.9-21.5-21.9-32.1-33
			c-3.8-3.9-3.7-8.4,0.2-12.3c17.3-17,34.7-33.9,52.2-50.8c4.1-3.9,8.4-3.9,12.4,0.1c10.8,10.9,21.5,21.9,32.1,33
			c4.1,4.2,3.9,8.4-0.2,12.7c-2.3,2.4-4.7,4.8-7.4,7.5c2.7,2.7,5.4,5.6,8.1,8.4c6.3,6.5,6.3,9.2-0.2,15.6c-0.6,0.6-1.1,1.1-1.8,2
			c2.9,4.8,5.8,9.5,8.8,14.3c5.3,8.5,10.4,17.1,15.9,25.4c1.2,1.8,3.3,3.5,5.3,4.2c13.1,4.5,26.2,8.8,39.4,13.1
			c1.7,0.6,3.6,0.9,5.5,0.9c12.7,0.1,25.3,0.1,38,0c1.8,0,3.9-0.8,5.3-1.9c10.8-8.4,21.6-17,32.3-25.6c1.5-1.2,2.8-2.8,3.7-4.6
			c10.5-20,21-40.1,31.5-60.2c3.3-6.3,8.8-9.3,14.5-8.2c8.7,1.6,13.5,10.5,9.8,18.7c-2.1,4.6-4.6,9-6.9,13.5
			c-8.9,17.1-17.8,34.3-26.9,51.3c-1.7,3.2-4.2,6.2-7,8.5c-11.7,9.6-23.7,19-35.7,28.4c-2.2,1.7-3.1,3.6-3,6.4
			c0.1,31.1,0,62.1,0.1,93.2c0,2.3,0.6,4.8,1.4,6.9c5.5,13.4,11.2,26.8,16.9,40.1c2,4.6,2.5,9.1,1.4,14
			c-4.9,21.7-9.6,43.4-14.5,65.1c-1.8,7.8-7.8,12.8-15.2,13c-7.1,0.2-13.8-4.5-15.5-11.5c-0.7-2.9-0.7-6.2-0.1-9.1
			c4.1-19.4,8.5-38.7,12.8-58.1c0.3-1.5,0.7-3.3,0.2-4.7c-6.2-16.6-12.5-33.1-18.8-49.5c-7.1,0.4-7.1,0.4-7.1,7
			c0,38.9-0.2,77.9,0.1,116.8c0.1,9.8-3,16.8-12.5,20.3h-7.2V627.9z M60.3,284.7c-4.8,5.3-9.8,10.7-14.2,15.6c1,1.2,2.5,3.1,3.3,4.2
			c1.6-3.4,2.6-7.6,5.2-10.1c2.7-2.6,6.9-3.5,10.3-5.1C63.8,288.3,62.2,286.6,60.3,284.7"/>
	</g>
	<g>
		<defs>
			<rect id="SVGID_7_" x="-21" y="213.9" width="551.5" height="414"/>
		</defs>
		<clipPath id="SVGID_8_">
			<use xlink:href="#SVGID_7_"  style="overflow:visible;"/>
		</clipPath>
		<path class="st3" d="M145.5,320.7c1.2-15.4,13.8-27,28.3-26c15.7,1.1,27.4,13.9,26.3,28.8c-1.1,15.2-14.3,27-29,25.8
			C155.8,348.1,144.3,335.3,145.5,320.7"/>
	</g>
	<g>
		<defs>
			<rect id="SVGID_9_" x="-21" y="213.9" width="551.5" height="414"/>
		</defs>
		<clipPath id="SVGID_10_">
			<use xlink:href="#SVGID_9_"  style="overflow:visible;"/>
		</clipPath>
		<path class="st4" d="M286.3,214.9c-0.9,1.1-1,2.6-0.4,3.9c4.6,8.9,8.5,16.8,12.8,24.5c0.5,0.9,3.6,1.3,4.8,0.7
			c1.5-0.9,3.4-3.3,3.1-4.6c-2.1-9.4-4.9-18.6-13.3-24.5c-1.5-1.1-4.3-1-6.2-0.5C286.8,214.4,286.5,214.6,286.3,214.9"/>
	</g>
	<g>
		<defs>
			<rect id="SVGID_11_" x="-21" y="213.9" width="551.5" height="414"/>
		</defs>
		<clipPath id="SVGID_12_">
			<use xlink:href="#SVGID_11_"  style="overflow:visible;"/>
		</clipPath>
		<path class="st5" d="M311.8,254.9c-0.5,1.2-0.3,2.6,0.4,3.6c1.1,1.5,2.1,3,3.2,3.1c1.9,0.2,4.9-1.2,6-2.8
			c4.2-6.6,8-13.4,11.5-20.4c0.7-1.5,0.6-4.5-0.4-5.5c-1.4-1.2-4.7-2.1-5.9-1.3c-3.1,2.1-6.2,4.8-8,8
			C315.9,244.3,314.1,249.5,311.8,254.9"/>
	</g>
</g>
</svg>
