<?xml version="1.0" encoding="utf-8"?>
<!-- Generator: Adobe Illustrator 21.0.0, SVG Export Plug-In . SVG Version: 6.00 Build 0)  -->
<svg version="1.1" id="Layer_1" xmlns="http://www.w3.org/2000/svg" xmlns:xlink="http://www.w3.org/1999/xlink" x="0px" y="0px"
	 viewBox="0 0 131.7 210" style="enable-background:new 0 0 131.7 210;" xml:space="preserve">
<style type="text/css">
	.st0{fill:#00A9FF;}
	.st1{fill:url(#SVGID_1_);}
	.st2{opacity:0.1;}
	.st3{fill:#F3B73E;}
	.st4{fill:#FFCC66;}
	.st5{fill:#FFFFFF;}
	.st6{fill:url(#SVGID_2_);}
	.st7{fill:url(#SVGID_3_);}
</style>
<g>
	<path class="st0" d="M124.3,155.2c-20.7,0-41.4,0-62.2,0c-0.2,0-0.5,0-0.7,0c-2.1,0.3-3.4,1.9-3.4,4.1c0,15.5,0,31,0,46.5
		c0,2.5,1.7,4.2,4.2,4.2c10.3,0,20.7,0,31,0c10.4,0,20.7,0,31.1,0c2.5,0,4.1-1.7,4.1-4.1c0-15.5,0-31,0-46.5
		C128.4,156.9,126.8,155.2,124.3,155.2z M114.5,163.1c-0.4,0.3-0.7,0.5-1,0.7c-6.6,4.3-13.3,8.7-19.9,13c-0.3,0.2-0.5,0.2-0.8,0
		c-6.9-4.5-13.7-9-20.6-13.4c-0.1-0.1-0.2-0.1-0.3-0.2C86.1,163.1,100.3,163.1,114.5,163.1z M120.5,202.2c-18.3,0-36.5,0-54.8,0
		c0-11.2,0-22.4,0-33.7c0.1,0.1,0.2,0.1,0.3,0.2c6.1,4,12.1,7.9,18.2,11.9c2.9,1.9,5.7,3.7,8.5,5.6c0.2,0.2,0.4,0.1,0.6,0
		c8.8-5.8,17.7-11.5,26.5-17.3c0.2-0.1,0.3-0.2,0.5-0.3C120.5,179.7,120.5,190.9,120.5,202.2z"/>
	<path class="st0" d="M73.6,139.6c-7.8,0-15.6,0-23.4,0c0,2.6,0,5.2,0,7.8c7.8,0,15.6,0,23.4,0C73.6,144.8,73.6,142.2,73.6,139.6z"
		/>
	<path class="st0" d="M129.7,83.5L129.7,83.5c-1.9-1.1-4.4-0.4-5.5,1.5L109,111.4c-2.1-1.9-4.9-3.1-7.9-3.1c-13.8,0-27.7,0-41.5,0
		c-9.7,0-19.5,0-29.2,0c-1,0-2.1,0.2-3,0.4c-1.8,0.5-3.4,1.4-4.7,2.6L7.4,85c-1.1-1.9-3.6-2.6-5.5-1.5h0c-1.9,1.1-2.6,3.6-1.5,5.5
		l18.2,31.6c0,2.6,0,5.2,0,7.9c0,20.6,0,41.1,0,61.7c0,0.6,0,1.2,0.1,1.8c0.7,5.8,5.8,10.2,11.6,10.3c6.4,0,12.8,0,19.1,0
		c0.1,0,0.3,0,0.4,0c0-2.6,0-5.2,0-7.8c-0.2,0-0.3,0-0.5,0c-6.3,0-12.6,0-18.9,0c-2.5,0-4.1-1.6-4.1-4.1c0-19.4,0-38.7,0-58.1
		c0-0.1,0-0.3,0-0.4c26.1,0,52.2,0,78.3,0c0,5.2,0,10.4,0,15.6c2.6,0,5.2,0,7.8,0c0-0.2,0-0.3,0-0.4c0-8.7,0-17.4,0-26.2L131.1,89
		C132.2,87.1,131.6,84.6,129.7,83.5z M104.9,123.9c-26.1,0-52.2,0-78.3,0c0-0.1,0-0.3,0-0.4c0-1,0-2,0-3.1c0.1-0.4,0.1-0.9,0.1-1.3
		c0.4-1.9,1.9-3,4-3c11,0,21.9,0,32.9,0c12.4,0,24.8,0,37.1,0c1.3,0,2.3,0.4,3.2,1.3c0.6,0.6,0.9,1.4,1,2.2
		C104.9,121,104.9,122.4,104.9,123.9z"/>
</g>
<g>
	<linearGradient id="SVGID_1_" gradientUnits="userSpaceOnUse" x1="49.085" y1="84.0659" x2="82.5736" y2="50.5774">
		<stop  offset="0" style="stop-color:#F89B22"/>
		<stop  offset="1" style="stop-color:#FED85E"/>
	</linearGradient>
	<circle class="st1" cx="65.8" cy="67.3" r="23.7"/>
	<g class="st2">
		<path d="M65.8,92c-13.5,0-24.5-10.9-24.7-24.5c0,0.1,0,0.2,0,0.2c0,13.6,11,24.8,24.7,24.8s24.7-11.2,24.7-24.8c0-0.1,0-0.2,0-0.2
			C90.4,81.1,79.4,92,65.8,92z"/>
	</g>
	<g>
		<path class="st3" d="M65.8,45.6c12.3,0,22.3,9.6,22.4,21.9c0-0.1,0-0.1,0-0.2c0-12.4-10-22.4-22.4-22.4S43.5,55,43.5,67.3
			c0,0.1,0,0.1,0,0.2C43.6,55.2,53.5,45.6,65.8,45.6z"/>
	</g>
	<path class="st4" d="M65.8,89.7c12.3,0,22.4-10,22.4-22.4s-10-22.4-22.4-22.4S43.4,55,43.4,67.3S53.5,89.7,65.8,89.7 M65.8,92
		C52.2,92,41.2,81,41.2,67.3s11-24.7,24.7-24.7s24.7,11.1,24.7,24.7S79.5,92,65.8,92L65.8,92L65.8,92z"/>
	<polygon class="st5" points="79.4,60.9 70.6,60.9 65.9,67.4 65.8,67.4 68.3,53.6 61.1,53.6 59.8,61.2 57.1,61.2 56.4,65 59.1,65 
		58.8,66.6 56.1,66.6 55.4,70.4 58.1,70.4 56.8,77.8 64,77.8 65.2,70.4 65.3,70.4 68.2,77.8 76.6,77.8 72.4,68.9 	"/>
</g>
<g>
	<linearGradient id="SVGID_2_" gradientUnits="userSpaceOnUse" x1="11.0751" y1="41.4285" x2="44.5636" y2="7.94">
		<stop  offset="0" style="stop-color:#F89B22"/>
		<stop  offset="1" style="stop-color:#FED85E"/>
	</linearGradient>
	<circle class="st6" cx="27.8" cy="24.7" r="23.7"/>
	<g class="st2">
		<path d="M27.8,49.4c-13.5,0-24.5-10.9-24.7-24.5c0,0.1,0,0.2,0,0.2c0,13.6,11,24.8,24.7,24.8s24.7-11.2,24.7-24.8
			c0-0.1,0-0.2,0-0.2C52.4,38.4,41.4,49.4,27.8,49.4z"/>
	</g>
	<g>
		<path class="st3" d="M27.8,3c12.3,0,22.3,9.6,22.4,21.9c0-0.1,0-0.1,0-0.2c0-12.4-10-22.4-22.4-22.4S5.4,12.3,5.4,24.7
			c0,0.1,0,0.1,0,0.2C5.6,12.6,15.5,3,27.8,3z"/>
	</g>
	<path class="st4" d="M27.8,47.1c12.3,0,22.4-10,22.4-22.4c0-12.4-10-22.4-22.4-22.4S5.4,12.3,5.4,24.7C5.4,37,15.5,47.1,27.8,47.1
		 M27.8,49.4c-13.6,0-24.7-11.1-24.7-24.7S14.2,0,27.8,0s24.7,11.1,24.7,24.7S41.4,49.4,27.8,49.4L27.8,49.4L27.8,49.4z"/>
	<polygon class="st5" points="41.3,18.3 32.6,18.3 27.9,24.7 27.8,24.7 30.3,10.9 23.1,10.9 21.7,18.6 19.1,18.6 18.4,22.4 
		21.1,22.4 20.8,24 18.1,24 17.4,27.8 20.1,27.8 18.8,35.1 26,35.1 27.2,27.8 27.3,27.8 30.2,35.1 38.6,35.1 34.4,26.3 	"/>
</g>
<g>
	<linearGradient id="SVGID_3_" gradientUnits="userSpaceOnUse" x1="86.663" y1="41.4285" x2="120.1515" y2="7.94">
		<stop  offset="0" style="stop-color:#F89B22"/>
		<stop  offset="1" style="stop-color:#FED85E"/>
	</linearGradient>
	<circle class="st7" cx="103.4" cy="24.7" r="23.7"/>
	<g class="st2">
		<path d="M103.4,49.4c-13.5,0-24.5-10.9-24.7-24.5c0,0.1,0,0.2,0,0.2c0,13.6,11,24.8,24.7,24.8c13.6,0,24.7-11.2,24.7-24.8
			c0-0.1,0-0.2,0-0.2C127.9,38.4,117,49.4,103.4,49.4z"/>
	</g>
	<g>
		<path class="st3" d="M103.4,3c12.3,0,22.3,9.6,22.4,21.9c0-0.1,0-0.1,0-0.2c0-12.4-10-22.4-22.4-22.4C91.1,2.3,81,12.3,81,24.7
			c0,0.1,0,0.1,0,0.2C81.1,12.6,91.1,3,103.4,3z"/>
	</g>
	<path class="st4" d="M103.4,47.1c12.3,0,22.4-10,22.4-22.4c0-12.4-10-22.4-22.4-22.4S81,12.3,81,24.7C81,37,91.1,47.1,103.4,47.1
		 M103.4,49.4c-13.6,0-24.7-11.1-24.7-24.7S89.8,0,103.4,0s24.7,11.1,24.7,24.7S117,49.4,103.4,49.4L103.4,49.4L103.4,49.4z"/>
	<polygon class="st5" points="116.9,18.3 108.2,18.3 103.5,24.7 103.4,24.7 105.9,10.9 98.7,10.9 97.3,18.6 94.6,18.6 93.9,22.4 
		96.7,22.4 96.4,24 93.7,24 92.9,27.8 95.7,27.8 94.4,35.1 101.6,35.1 102.8,27.8 102.9,27.8 105.8,35.1 114.2,35.1 110,26.3 	"/>
</g>
</svg>
