<?xml version="1.0" encoding="utf-8"?>
<!-- Generator: Adobe Illustrator 21.0.0, SVG Export Plug-In . SVG Version: 6.00 Build 0)  -->
<svg version="1.1" id="Layer_1" xmlns="http://www.w3.org/2000/svg" xmlns:xlink="http://www.w3.org/1999/xlink" x="0px" y="0px"
	 viewBox="0 0 421.1 279" style="enable-background:new 0 0 421.1 279;" xml:space="preserve">
<style type="text/css">
	.st0{opacity:0.4;fill:#FEFEFE;}
	.st1{fill:#00A9FF;}
	.st2{fill:#FEFEFE;}
	.st3{fill:#4DDC87;}
	.st4{fill:#F9C348;}
</style>
<rect x="163" y="48.4" transform="matrix(0.7917 0.6109 -0.6109 0.7917 99.925 -77.7038)" class="st0" width="1.8" height="118.5"/>
<rect x="111.7" y="145.6" transform="matrix(0.9542 0.2993 -0.2993 0.9542 66.4694 -24.319)" class="st0" width="1.8" height="118.5"/>
<rect x="70.5" y="147.5" transform="matrix(0.6946 0.7194 -0.7194 0.6946 170.5784 11.7985)" class="st0" width="1.8" height="118.5"/>
<rect x="155.6" y="146.2" transform="matrix(0.9435 -0.3315 0.3315 0.9435 -59.2654 63.4747)" class="st0" width="1.8" height="118.5"/>
<rect x="308.3" y="145.6" transform="matrix(-0.9542 0.2993 -0.2993 -0.9542 665.4728 307.6979)" class="st0" width="1.8" height="118.5"/>
<rect x="349.5" y="147.5" transform="matrix(-0.6946 0.7194 -0.7194 -0.6946 742.5338 98.3208)" class="st0" width="1.8" height="118.5"/>
<rect x="264.5" y="146.2" transform="matrix(-0.9435 -0.3315 0.3315 -0.9435 447.565 487.2974)" class="st0" width="1.8" height="118.5"/>
<rect x="255.8" y="48.4" transform="matrix(-0.7917 0.6109 -0.6109 -0.7917 525.623 36.1905)" class="st0" width="1.8" height="118.5"/>
<g>
	<circle class="st1" cx="291.9" cy="154.8" r="45"/>
	<g id="_x30_I8tK5_1_">
		<g>
			<path class="st2" d="M291.8,177.4c-2,0-4-0.1-6.1-0.3c-2.3-0.3-4.7-0.7-6.9-1.3c-1.7-0.5-3.3-1.1-4.7-2c-0.9-0.5-1.7-1.2-2.2-2.1
				c-0.3-0.5-0.4-1-0.4-1.5c0-2.3,0.5-4.4,1.5-6.5c1-2,2.4-3.7,4.1-5c1.9-1.5,4-2.4,6.3-2.9c0.2,0,0.4,0,0.6,0.1
				c0.8,0.6,3.8,3.2,8,3.2c4,0,7.8-3,8-3.2c0.1-0.1,0.3-0.2,0.7-0.1c1.4,0.2,2.5,0.6,3.8,1.3c1.3,0.7,2.5,1.5,3.6,2.5
				c1.1,1,2,2.2,2.7,3.6c0.8,1.4,1.3,3,1.6,4.6c0.1,0.8,0.2,1.7,0.2,2.6c0,0.7-0.3,1.3-0.8,1.8c-0.6,0.8-1.4,1.3-2.3,1.8
				c-2,1.1-4.1,1.8-6.3,2.3c-1.5,0.3-3,0.6-4.6,0.8C296.3,177.3,294.1,177.4,291.8,177.4z"/>
			<path class="st2" d="M291.5,132.2c2.4,0,4.3,0.5,6,1.5c1.9,1.1,3.3,2.6,4.3,4.6c1,1.9,1.3,4,1.1,6.1c-0.2,2.2-1,4.1-2.2,6
				c-0.8,1.2-1.7,2.3-2.9,3.1c-1.4,1.1-3,1.8-4.7,2.1c-1.8,0.2-3.5-0.1-5.1-0.9c-2-1-3.5-2.5-4.7-4.3c-0.9-1.4-1.6-2.9-1.9-4.5
				c-0.6-2.4-0.4-4.7,0.5-7c0.8-1.9,2.1-3.5,3.8-4.7C287.5,132.8,289.6,132.2,291.5,132.2z"/>
		</g>
	</g>
</g>
<g>
	<circle class="st1" cx="129.2" cy="154.8" r="45"/>
	<g id="_x30_I8tK5_2_">
		<g>
			<path class="st2" d="M129.1,177.4c-2,0-4-0.1-6.1-0.3c-2.3-0.3-4.7-0.7-6.9-1.3c-1.7-0.5-3.3-1.1-4.7-2c-0.9-0.5-1.7-1.2-2.2-2.1
				c-0.3-0.5-0.4-1-0.4-1.5c0-2.3,0.5-4.4,1.5-6.5c1-2,2.4-3.7,4.1-5c1.9-1.5,4-2.4,6.3-2.9c0.2,0,0.4,0,0.6,0.1
				c0.8,0.6,3.8,3.2,8,3.2c4,0,7.8-3,8-3.2c0.1-0.1,0.3-0.2,0.7-0.1c1.4,0.2,2.5,0.6,3.8,1.3c1.3,0.7,2.5,1.5,3.6,2.5
				c1.1,1,2,2.2,2.7,3.6c0.8,1.4,1.3,3,1.6,4.6c0.1,0.8,0.2,1.7,0.2,2.6c0,0.7-0.3,1.3-0.8,1.8c-0.6,0.8-1.4,1.3-2.3,1.8
				c-2,1.1-4.1,1.8-6.3,2.3c-1.5,0.3-3,0.6-4.6,0.8C133.6,177.3,131.4,177.4,129.1,177.4z"/>
			<path class="st2" d="M128.7,132.2c2.4,0,4.3,0.5,6,1.5c1.9,1.1,3.3,2.6,4.3,4.6c1,1.9,1.3,4,1.1,6.1c-0.2,2.2-1,4.1-2.2,6
				c-0.8,1.2-1.7,2.3-2.9,3.1c-1.4,1.1-3,1.8-4.7,2.1c-1.8,0.2-3.5-0.1-5.1-0.9c-2-1-3.5-2.5-4.7-4.3c-0.9-1.4-1.6-2.9-1.9-4.5
				c-0.6-2.4-0.4-4.7,0.5-7c0.8-1.9,2.1-3.5,3.8-4.7C124.8,132.8,126.9,132.2,128.7,132.2z"/>
		</g>
	</g>
</g>
<g>
	<circle class="st3" cx="101.4" cy="249" r="30"/>
	<g id="_x30_I8tK5_4_">
		<g>
			<path class="st2" d="M101.3,264.1c-1.3,0-2.7-0.1-4.1-0.2c-1.6-0.2-3.1-0.4-4.6-0.9c-1.1-0.3-2.2-0.7-3.2-1.3
				c-0.6-0.4-1.1-0.8-1.5-1.4c-0.2-0.3-0.3-0.6-0.3-1c0-1.5,0.3-3,1-4.3c0.7-1.3,1.6-2.5,2.7-3.4c1.2-1,2.7-1.6,4.2-1.9
				c0.2,0,0.3,0,0.4,0.1c0.6,0.4,2.5,2.1,5.3,2.1c2.6,0,5.2-2,5.3-2.1c0.1-0.1,0.2-0.1,0.4-0.1c1,0.2,1.7,0.4,2.6,0.9
				c0.9,0.4,1.7,1,2.4,1.7c0.7,0.7,1.3,1.5,1.8,2.4c0.5,1,0.9,2,1,3.1c0.1,0.6,0.1,1.1,0.1,1.7c0,0.5-0.2,0.9-0.5,1.2
				c-0.4,0.5-0.9,0.9-1.5,1.2c-1.3,0.7-2.8,1.2-4.2,1.5c-1,0.2-2,0.4-3.1,0.5C104.3,264,102.8,264.1,101.3,264.1z"/>
			<path class="st2" d="M101.1,233.9c1.6,0,2.9,0.3,4,1c1.3,0.7,2.2,1.8,2.9,3.1c0.6,1.3,0.9,2.6,0.7,4.1c-0.2,1.4-0.7,2.8-1.5,4
				c-0.5,0.8-1.2,1.5-1.9,2.1c-0.9,0.7-2,1.2-3.2,1.4c-1.2,0.2-2.3-0.1-3.4-0.6c-1.3-0.7-2.3-1.6-3.1-2.9c-0.6-0.9-1-1.9-1.3-3
				c-0.4-1.6-0.3-3.2,0.4-4.7c0.5-1.3,1.4-2.3,2.5-3.1C98.4,234.3,99.8,233.9,101.1,233.9z"/>
		</g>
	</g>
</g>
<g>
	<circle class="st3" cx="172.7" cy="249" r="30"/>
	<g id="_x30_I8tK5_5_">
		<g>
			<path class="st2" d="M172.6,264.1c-1.3,0-2.7-0.1-4.1-0.2c-1.6-0.2-3.1-0.4-4.6-0.9c-1.1-0.3-2.2-0.7-3.2-1.3
				c-0.6-0.4-1.1-0.8-1.5-1.4c-0.2-0.3-0.3-0.6-0.3-1c0-1.5,0.3-3,1-4.3c0.7-1.3,1.6-2.5,2.7-3.4c1.2-1,2.7-1.6,4.2-1.9
				c0.2,0,0.3,0,0.4,0.1c0.6,0.4,2.5,2.1,5.3,2.1c2.6,0,5.2-2,5.3-2.1c0.1-0.1,0.2-0.1,0.4-0.1c1,0.2,1.7,0.4,2.6,0.9
				c0.9,0.4,1.7,1,2.4,1.7c0.7,0.7,1.3,1.5,1.8,2.4c0.5,1,0.9,2,1,3.1c0.1,0.6,0.1,1.1,0.1,1.7c0,0.5-0.2,0.9-0.5,1.2
				c-0.4,0.5-0.9,0.9-1.5,1.2c-1.3,0.7-2.8,1.2-4.2,1.5c-1,0.2-2,0.4-3.1,0.5C175.6,264,174.2,264.1,172.6,264.1z"/>
			<path class="st2" d="M172.4,233.9c1.6,0,2.9,0.3,4,1c1.3,0.7,2.2,1.8,2.9,3.1c0.6,1.3,0.9,2.6,0.7,4.1c-0.2,1.4-0.7,2.8-1.5,4
				c-0.5,0.8-1.2,1.5-1.9,2.1c-0.9,0.7-2,1.2-3.2,1.4c-1.2,0.2-2.3-0.1-3.4-0.6c-1.3-0.7-2.3-1.6-3.1-2.9c-0.6-0.9-1-1.9-1.3-3
				c-0.4-1.6-0.3-3.2,0.4-4.7c0.5-1.3,1.4-2.3,2.5-3.1C169.8,234.3,171.2,233.9,172.4,233.9z"/>
		</g>
	</g>
</g>
<g>
	<circle class="st3" cx="30" cy="249" r="30"/>
	<g id="_x30_I8tK5_6_">
		<g>
			<path class="st2" d="M30,264.1c-1.3,0-2.7-0.1-4.1-0.2c-1.6-0.2-3.1-0.4-4.6-0.9c-1.1-0.3-2.2-0.7-3.2-1.3
				c-0.6-0.4-1.1-0.8-1.5-1.4c-0.2-0.3-0.3-0.6-0.3-1c0-1.5,0.3-3,1-4.3c0.7-1.3,1.6-2.5,2.7-3.4c1.2-1,2.7-1.6,4.2-1.9
				c0.2,0,0.3,0,0.4,0.1c0.6,0.4,2.5,2.1,5.3,2.1c2.6,0,5.2-2,5.3-2.1c0.1-0.1,0.2-0.1,0.4-0.1c1,0.2,1.7,0.4,2.6,0.9
				c0.9,0.4,1.7,1,2.4,1.7c0.7,0.7,1.3,1.5,1.8,2.4c0.5,1,0.9,2,1,3.1c0.1,0.6,0.1,1.1,0.1,1.7c0,0.5-0.2,0.9-0.5,1.2
				c-0.4,0.5-0.9,0.9-1.5,1.2c-1.3,0.7-2.8,1.2-4.2,1.5c-1,0.2-2,0.4-3.1,0.5C32.9,264,31.5,264.1,30,264.1z"/>
			<path class="st2" d="M29.7,233.9c1.6,0,2.9,0.3,4,1c1.3,0.7,2.2,1.8,2.9,3.1c0.6,1.3,0.9,2.6,0.7,4.1c-0.2,1.4-0.7,2.8-1.5,4
				c-0.5,0.8-1.2,1.5-1.9,2.1c-0.9,0.7-2,1.2-3.2,1.4c-1.2,0.2-2.3-0.1-3.4-0.6c-1.3-0.7-2.3-1.6-3.1-2.9c-0.6-0.9-1-1.9-1.3-3
				c-0.4-1.6-0.3-3.2,0.4-4.7c0.5-1.3,1.4-2.3,2.5-3.1C27.1,234.3,28.5,233.9,29.7,233.9z"/>
		</g>
	</g>
</g>
<g>
	<circle class="st3" cx="319.7" cy="249" r="30"/>
	<g id="_x30_I8tK5_9_">
		<g>
			<path class="st2" d="M319.7,264.1c-1.3,0-2.7-0.1-4.1-0.2c-1.6-0.2-3.1-0.4-4.6-0.9c-1.1-0.3-2.2-0.7-3.2-1.3
				c-0.6-0.4-1.1-0.8-1.5-1.4c-0.2-0.3-0.3-0.6-0.3-1c0-1.5,0.3-3,1-4.3c0.7-1.3,1.6-2.5,2.7-3.4c1.2-1,2.7-1.6,4.2-1.9
				c0.2,0,0.3,0,0.4,0.1c0.6,0.4,2.5,2.1,5.3,2.1c2.6,0,5.2-2,5.3-2.1c0.1-0.1,0.2-0.1,0.4-0.1c1,0.2,1.7,0.4,2.6,0.9
				c0.9,0.4,1.7,1,2.4,1.7c0.7,0.7,1.3,1.5,1.8,2.4c0.5,1,0.9,2,1,3.1c0.1,0.6,0.1,1.1,0.1,1.7c0,0.5-0.2,0.9-0.5,1.2
				c-0.4,0.5-0.9,0.9-1.5,1.2c-1.3,0.7-2.8,1.2-4.2,1.5c-1,0.2-2,0.4-3.1,0.5C322.6,264,321.2,264.1,319.7,264.1z"/>
			<path class="st2" d="M319.4,233.9c1.6,0,2.9,0.3,4,1c1.3,0.7,2.2,1.8,2.9,3.1c0.6,1.3,0.9,2.6,0.7,4.1c-0.2,1.4-0.7,2.8-1.5,4
				c-0.5,0.8-1.2,1.5-1.9,2.1c-0.9,0.7-2,1.2-3.2,1.4c-1.2,0.2-2.3-0.1-3.4-0.6c-1.3-0.7-2.3-1.6-3.1-2.9c-0.6-0.9-1-1.9-1.3-3
				c-0.4-1.6-0.3-3.2,0.4-4.7c0.5-1.3,1.4-2.3,2.5-3.1C316.8,234.3,318.2,233.9,319.4,233.9z"/>
		</g>
	</g>
</g>
<g>
	<circle class="st3" cx="391.1" cy="249" r="30"/>
	<g id="_x30_I8tK5_8_">
		<g>
			<path class="st2" d="M391,264.1c-1.3,0-2.7-0.1-4.1-0.2c-1.6-0.2-3.1-0.4-4.6-0.9c-1.1-0.3-2.2-0.7-3.2-1.3
				c-0.6-0.4-1.1-0.8-1.5-1.4c-0.2-0.3-0.3-0.6-0.3-1c0-1.5,0.3-3,1-4.3c0.7-1.3,1.6-2.5,2.7-3.4c1.2-1,2.7-1.6,4.2-1.9
				c0.2,0,0.3,0,0.4,0.1c0.6,0.4,2.5,2.1,5.3,2.1c2.6,0,5.2-2,5.3-2.1c0.1-0.1,0.2-0.1,0.4-0.1c1,0.2,1.7,0.4,2.6,0.9
				c0.9,0.4,1.7,1,2.4,1.7c0.7,0.7,1.3,1.5,1.8,2.4c0.5,1,0.9,2,1,3.1c0.1,0.6,0.1,1.1,0.1,1.7c0,0.5-0.2,0.9-0.5,1.2
				c-0.4,0.5-0.9,0.9-1.5,1.2c-1.3,0.7-2.8,1.2-4.2,1.5c-1,0.2-2,0.4-3.1,0.5C394,264,392.5,264.1,391,264.1z"/>
			<path class="st2" d="M390.8,233.9c1.6,0,2.9,0.3,4,1c1.3,0.7,2.2,1.8,2.9,3.1c0.6,1.3,0.9,2.6,0.7,4.1c-0.2,1.4-0.7,2.8-1.5,4
				c-0.5,0.8-1.2,1.5-1.9,2.1c-0.9,0.7-2,1.2-3.2,1.4c-1.2,0.2-2.3-0.1-3.4-0.6c-1.3-0.7-2.3-1.6-3.1-2.9c-0.6-0.9-1-1.9-1.3-3
				c-0.4-1.6-0.3-3.2,0.4-4.7c0.5-1.3,1.4-2.3,2.5-3.1C388.1,234.3,389.5,233.9,390.8,233.9z"/>
		</g>
	</g>
</g>
<g>
	<circle class="st3" cx="248.4" cy="249" r="30"/>
	<g id="_x30_I8tK5_7_">
		<g>
			<path class="st2" d="M248.3,264.1c-1.3,0-2.7-0.1-4.1-0.2c-1.6-0.2-3.1-0.4-4.6-0.9c-1.1-0.3-2.2-0.7-3.2-1.3
				c-0.6-0.4-1.1-0.8-1.5-1.4c-0.2-0.3-0.3-0.6-0.3-1c0-1.5,0.3-3,1-4.3c0.7-1.3,1.6-2.5,2.7-3.4c1.2-1,2.7-1.6,4.2-1.9
				c0.2,0,0.3,0,0.4,0.1c0.6,0.4,2.5,2.1,5.3,2.1c2.6,0,5.2-2,5.3-2.1c0.1-0.1,0.2-0.1,0.4-0.1c1,0.2,1.7,0.4,2.6,0.9
				c0.9,0.4,1.7,1,2.4,1.7c0.7,0.7,1.3,1.5,1.8,2.4c0.5,1,0.9,2,1,3.1c0.1,0.6,0.1,1.1,0.1,1.7c0,0.5-0.2,0.9-0.5,1.2
				c-0.4,0.5-0.9,0.9-1.5,1.2c-1.3,0.7-2.8,1.2-4.2,1.5c-1,0.2-2,0.4-3.1,0.5C251.3,264,249.8,264.1,248.3,264.1z"/>
			<path class="st2" d="M248.1,233.9c1.6,0,2.9,0.3,4,1c1.3,0.7,2.2,1.8,2.9,3.1c0.6,1.3,0.9,2.6,0.7,4.1c-0.2,1.4-0.7,2.8-1.5,4
				c-0.5,0.8-1.2,1.5-1.9,2.1c-0.9,0.7-2,1.2-3.2,1.4c-1.2,0.2-2.3-0.1-3.4-0.6c-1.3-0.7-2.3-1.6-3.1-2.9c-0.6-0.9-1-1.9-1.3-3
				c-0.4-1.6-0.3-3.2,0.4-4.7c0.5-1.3,1.4-2.3,2.5-3.1C245.4,234.3,246.8,233.9,248.1,233.9z"/>
		</g>
	</g>
</g>
<g>
	<circle class="st4" cx="211.4" cy="56.1" r="56.1"/>
	<g id="_x30_I8tK5_3_">
		<g>
			<path class="st2" d="M211.3,84.3c-2.5,0-5-0.1-7.6-0.4c-2.9-0.3-5.8-0.8-8.6-1.7c-2.1-0.6-4.1-1.4-5.9-2.5
				c-1.1-0.7-2.1-1.5-2.8-2.6c-0.4-0.6-0.6-1.2-0.6-1.9c0-2.8,0.6-5.5,1.9-8.1c1.2-2.5,2.9-4.6,5.1-6.3c2.3-1.8,5-3,7.9-3.6
				c0.3-0.1,0.5,0,0.8,0.2c1,0.7,4.7,3.9,9.9,3.9c4.9,0,9.7-3.8,10-4c0.1-0.1,0.4-0.3,0.8-0.1c1.8,0.3,3.2,0.8,4.8,1.6
				c1.6,0.8,3.1,1.9,4.4,3.2c1.3,1.3,2.5,2.8,3.4,4.4c1,1.8,1.6,3.7,1.9,5.7c0.2,1.1,0.2,2.1,0.2,3.2c0,0.9-0.4,1.6-1,2.3
				c-0.8,0.9-1.8,1.6-2.8,2.2c-2.5,1.4-5.1,2.2-7.9,2.8c-1.9,0.4-3.8,0.8-5.7,1C216.9,84.1,214.2,84.3,211.3,84.3z"/>
			<path class="st2" d="M210.9,27.9c3,0,5.3,0.6,7.5,1.9c2.3,1.4,4.1,3.3,5.4,5.7c1.2,2.4,1.6,4.9,1.3,7.6c-0.3,2.7-1.2,5.2-2.7,7.4
				c-1,1.5-2.2,2.8-3.6,3.9c-1.7,1.4-3.7,2.3-5.9,2.6c-2.2,0.3-4.4-0.1-6.4-1.1c-2.5-1.2-4.4-3.1-5.9-5.4c-1.1-1.7-2-3.6-2.4-5.6
				c-0.7-3-0.5-5.9,0.7-8.8c1-2.4,2.6-4.4,4.7-5.9C205.9,28.7,208.6,27.9,210.9,27.9z"/>
		</g>
	</g>
</g>
</svg>
