<?xml version="1.0" encoding="utf-8"?>
<!-- Generator: Adobe Illustrator 19.0.1, SVG Export Plug-In . SVG Version: 6.00 Build 0)  -->
<svg version="1.1" id="Layer_1" xmlns="http://www.w3.org/2000/svg" xmlns:xlink="http://www.w3.org/1999/xlink" x="0px" y="0px"
	 viewBox="-282 405.9 30 30" style="enable-background:new -282 405.9 30 30;" xml:space="preserve">
<style type="text/css">
	.st0{fill:#334652;}
</style>
<path class="st0" d="M-267,405.9c-8.3,0-15,6.7-15,15c0,8.3,6.7,15,15,15s15-6.7,15-15C-252,412.6-258.7,405.9-267,405.9z
	 M-258.5,412.8l-3.4,15.8c-0.1,0.3-0.4,0.5-0.7,0.3l-5.1-3.5l-2.8,2.6c-0.3,0.2-0.6,0.1-0.7-0.2l-1.8-5.6l-4.8-1.9
	c-0.4-0.1-0.4-0.8,0-0.9l18.5-7.1C-258.9,412.2-258.5,412.5-258.5,412.8z"/>
<path class="st0" d="M-270.6,426.2l0.3-2.9l8.4-8.1l-10.1,6.6"/>
</svg>
