<?xml version="1.0" encoding="utf-8"?>
<!-- Generator: Adobe Illustrator 19.0.1, SVG Export Plug-In . SVG Version: 6.00 Build 0)  -->
<svg version="1.1" id="BACKGROUND_1" xmlns="http://www.w3.org/2000/svg" xmlns:xlink="http://www.w3.org/1999/xlink" x="0px"
	 y="0px" viewBox="0 0 676.5 676.5" style="enable-background:new 0 0 676.5 676.5;" xml:space="preserve">
<style type="text/css">
	.st0{opacity:0.1;fill:none;stroke:#FFFFFF;stroke-width:16;stroke-linecap:round;stroke-miterlimit:10;}
	.st1{fill:none;stroke:#36BC22;stroke-width:16;stroke-linecap:round;stroke-miterlimit:10;}
	.st2{fill:none;stroke:#0CA0E2;stroke-width:16;stroke-linecap:round;stroke-miterlimit:10;}
	.st3{fill:none;stroke:#C225D8;stroke-width:16;stroke-linecap:round;stroke-miterlimit:10;}
	.st4{fill:none;stroke:#E4484F;stroke-width:16;stroke-linecap:round;stroke-miterlimit:10;}
	.st5{fill:#1D2D44;stroke:#C225D8;stroke-width:8;stroke-miterlimit:10;}
	.st6{fill:#1D2D44;stroke:#E4484F;stroke-width:8;stroke-miterlimit:10;}
	.st7{fill:#1D2D44;stroke:#0CA0E2;stroke-width:8;stroke-miterlimit:10;}
	.st8{fill:#1D2D44;stroke:#36BC22;stroke-width:8;stroke-miterlimit:10;}
</style>
<circle class="st0" cx="335.9" cy="342.8" r="283"/>
<path class="st1" d="M335.9,59.8c156.3,0,283,126.7,283,283s-126.7,283-283,283c-100.8,0-189.3-52.7-239.4-132"/>
<circle class="st0" cx="335.9" cy="342.8" r="197.5"/>
<path class="st2" d="M335.9,145.4c109.1,0,197.5,88.4,197.5,197.5c0,13.6-1.4,26.9-4,39.8"/>
<circle class="st0" cx="335.9" cy="342.8" r="112.7"/>
<path class="st3" d="M335.9,230.2c17.7,0,34.4,4.1,49.3,11.3"/>
<circle class="st0" cx="335.9" cy="342.8" r="41"/>
<path class="st4" d="M335.9,301.8c3.8,0,7.4,0.5,10.8,1.4"/>
<circle class="st5" cx="388.4" cy="241.5" r="29.4"/>
<circle class="st6" cx="370.8" cy="319.6" r="29.4"/>
<circle class="st7" cx="529" cy="383.8" r="29.4"/>
<circle class="st8" cx="93.1" cy="486" r="29.4"/>
</svg>
