<?xml version="1.0" encoding="utf-8"?>
<!-- Generator: Adobe Illustrator 19.0.1, SVG Export Plug-In . SVG Version: 6.00 Build 0)  -->
<svg version="1.1" id="Layer_1" xmlns="http://www.w3.org/2000/svg" xmlns:xlink="http://www.w3.org/1999/xlink" x="0px" y="0px"
	 viewBox="-282 405.9 30 30" style="enable-background:new -282 405.9 30 30;" xml:space="preserve">
<style type="text/css">
	.st0{fill:#334652;}
</style>
<path class="st0" d="M-252.1,420.9c0,8.2-6.6,14.8-14.9,14.8c-8.2,0-14.9-6.6-14.9-14.8c0-8.2,6.6-14.9,14.9-14.9
	C-258.8,406-252.1,412.7-252.1,420.9 M-258.2,413.6c-0.7,0.4-1.6,0.8-2.4,0.9c-0.7-0.7-1.7-1.2-2.8-1.2c-2.1,0-3.8,1.7-3.8,3.8
	c0,0.3,0,0.6,0.1,0.9c-3.2-0.2-6-1.7-7.8-4c-0.3,0.6-0.5,1.2-0.5,1.9c0,1.3,0.7,2.5,1.7,3.2c-0.6,0-1.2-0.2-1.7-0.5v0
	c0,1.8,1.3,3.4,3.1,3.7c-0.3,0.1-0.7,0.1-1,0.1c-0.2,0-0.5,0-0.7-0.1c0.5,1.5,1.9,2.6,3.6,2.6c-1.3,1-2.9,1.6-4.7,1.6
	c-0.3,0-0.6,0-0.9-0.1c1.7,1.1,3.7,1.7,5.8,1.7c7,0,10.8-5.8,10.8-10.8c0-0.2,0-0.3,0-0.5c0.7-0.5,1.4-1.2,1.9-2
	c-0.7,0.3-1.4,0.5-2.2,0.6C-259.1,415.3-258.5,414.5-258.2,413.6"/>
</svg>
