<?xml version="1.0" encoding="utf-8"?>
<!-- Generator: Adobe Illustrator 19.0.1, SVG Export Plug-In . SVG Version: 6.00 Build 0)  -->
<svg version="1.1" id="Layer_1" xmlns="http://www.w3.org/2000/svg" xmlns:xlink="http://www.w3.org/1999/xlink" x="0px" y="0px"
	 viewBox="-282 405.9 30 30" style="enable-background:new -282 405.9 30 30;" xml:space="preserve">
<style type="text/css">
	.st0{fill:#334652;}
</style>
<path class="st0" d="M-252.1,420.9c0,8.2-6.6,14.8-14.8,14.8c-8.2,0-14.9-6.6-14.9-14.8c0-8.2,6.6-14.9,14.9-14.9
	C-258.8,406-252.1,412.7-252.1,420.9 M-260,424c-1.6-1.5-1.4-1.3,0.6-3.9c1.2-1.6,1.7-2.6,1.5-3c-0.1-0.4-1-0.3-1-0.3l-2.9,0
	c0,0-0.2,0-0.4,0.1c-0.2,0.1-0.3,0.3-0.3,0.3s-0.5,1.2-1.1,2.3c-1.3,2.2-1.8,2.3-2,2.2c-0.5-0.3-0.4-1.3-0.4-2
	c0-2.2,0.3-3.1-0.6-3.3c-0.3-0.1-0.6-0.1-1.4-0.1c-1,0-1.9,0-2.4,0.2c-0.3,0.2-0.6,0.5-0.4,0.6c0.2,0,0.6,0.1,0.9,0.4
	c0.3,0.4,0.3,1.3,0.3,1.3s0.2,2.5-0.4,2.9c-0.4,0.2-0.9-0.2-2.1-2.2c-0.6-1-1-2.2-1-2.2s-0.1-0.2-0.2-0.3c-0.2-0.1-0.5-0.2-0.5-0.2
	l-2.8,0c0,0-0.4,0-0.6,0.2c-0.1,0.2,0,0.5,0,0.5s2.2,5.1,4.7,7.6c2.3,2.4,4.9,2.1,4.9,2.1h1.2c0,0,0.4,0.1,0.5-0.1
	c0.2-0.2,0.2-0.4,0.2-0.4s0-1.6,0.7-1.8c0.7-0.2,1.6,1.5,2.6,2.2c0.7,0.5,1.3,0.4,1.3,0.4l2.6,0c0,0,1.4-0.1,0.7-1.2
	C-258.1,426.2-258.4,425.5-260,424"/>
</svg>
