<?xml version="1.0" encoding="utf-8"?>
<!-- Generator: Adobe Illustrator 19.0.1, SVG Export Plug-In . SVG Version: 6.00 Build 0)  -->
<svg version="1.1" id="Слой_1" xmlns="http://www.w3.org/2000/svg" xmlns:xlink="http://www.w3.org/1999/xlink" x="0px" y="0px"
	 viewBox="0 0 563.1 248.1" style="enable-background:new 0 0 563.1 248.1;" xml:space="preserve">
<style type="text/css">
	.st0{fill:#B1B1B1;}
	.st1{clip-path:url(#SVGID_2_);fill:#B1B1B1;}
	.st2{clip-path:url(#SVGID_2_);fill:#E9E9E9;}
	.st3{clip-path:url(#SVGID_2_);fill:#D7D7D7;}
</style>
<polygon class="st0" points="286.4,158.5 287.7,167.7 289.7,159.4 303.5,110.6 311.3,110.6 324.8,159.4 326.7,167.9 328.2,158.5 
	339.1,110.7 348.4,110.7 331.4,180.6 323,180.6 308.6,129.6 307.5,124.3 306.4,129.6 291.5,180.6 283.1,180.6 266.2,110.7 
	275.4,110.7 "/>
<rect x="358.3" y="110.6" class="st0" width="9.2" height="69.9"/>
<polygon class="st0" points="436.5,180.5 427.2,180.5 392,126.6 392,180.5 382.7,180.5 382.7,110.6 392,110.6 427.3,164.7 
	427.3,110.6 436.5,110.6 "/>
<g>
	<defs>
		<rect id="SVGID_1_" width="563.1" height="248.1"/>
	</defs>
	<clipPath id="SVGID_2_">
		<use xlink:href="#SVGID_1_"  style="overflow:visible;"/>
	</clipPath>
	<path class="st1" d="M502.9,171.4c-2.4,3.4-5.7,5.9-9.9,7.6c-4.2,1.7-9.2,2.5-14.8,2.5c-5.7,0-10.8-1.3-15.2-4
		c-4.4-2.7-7.8-6.5-10.3-11.4c-2.4-4.9-3.7-10.6-3.7-17.1v-6.1c0-10.5,2.5-18.7,7.4-24.5c4.9-5.8,11.8-8.7,20.7-8.7
		c7.3,0,13.2,1.9,17.6,5.6c4.4,3.7,7.2,9,8.2,15.9h-9.2c-1.7-9.3-7.2-13.9-16.5-13.9c-6.2,0-10.9,2.2-14,6.5
		c-3.2,4.3-4.8,10.6-4.8,18.9v5.7c0,7.9,1.8,14.1,5.4,18.7c3.6,4.6,8.4,6.9,14.6,6.9c3.5,0,6.5-0.4,9.1-1.1c2.6-0.8,4.7-2.1,6.4-3.9
		v-15.7h-16.2v-7.5h25.4L502.9,171.4z"/>
	<path class="st1" d="M537.3,149.4c-7.9-2.3-13.7-5.1-17.3-8.4c-3.6-3.3-5.4-7.4-5.4-12.3c0-5.5,2.2-10.1,6.6-13.7
		c4.4-3.6,10.1-5.4,17.2-5.4c4.8,0,9.1,0.9,12.8,2.8c3.8,1.9,6.7,4.4,8.7,7.7c2.1,3.3,3.1,6.8,3.1,10.7h-9.3c0-4.2-1.3-7.6-4-10
		c-2.7-2.4-6.5-3.6-11.4-3.6c-4.5,0-8.1,1-10.6,3s-3.8,4.8-3.8,8.3c0,2.9,1.2,5.3,3.6,7.2c2.4,2,6.5,3.8,12.3,5.4
		c5.8,1.6,10.4,3.4,13.6,5.4c3.3,2,5.7,4.3,7.3,6.9c1.6,2.6,2.4,5.7,2.4,9.3c0,5.7-2.2,10.2-6.6,13.6c-4.4,3.4-10.3,5.1-17.7,5.1
		c-4.8,0-9.3-0.9-13.4-2.8c-4.2-1.8-7.4-4.4-9.6-7.6c-2.3-3.2-3.4-6.8-3.4-10.9h9.3c0,4.2,1.6,7.6,4.7,10c3.1,2.4,7.3,3.7,12.5,3.7
		c4.9,0,8.6-1,11.2-3c2.6-2,3.9-4.7,3.9-8.1c0-3.4-1.2-6.1-3.6-7.9C548,153,543.6,151.2,537.3,149.4"/>
	<polygon class="st1" points="18.3,47.3 153,53.9 184.4,118.1 137.2,161.8 117.4,79.9 	"/>
	<polygon class="st2" points="31.8,248.1 254.6,38.5 274.3,91.5 249.1,82.7 249.1,136.2 	"/>
	<polygon class="st3" points="0,0 165.3,10.1 229.3,146.4 162.5,180.8 126.2,41.3 	"/>
</g>
</svg>
